<svg width="99" height="76" viewBox="0 0 99 76" fill="none" xmlns="http://www.w3.org/2000/svg">
<path d="M13.3535 34.0355C13.3535 34.0355 16.4751 19.4121 24.3306 19.4121C32.1861 19.4121 36.3643 42.401 17.2573 44.9014L13.3535 34.0355Z" fill="#F4A28C"/>
<path d="M13.3535 34.0355C13.3535 34.0355 16.4751 19.4121 24.3306 19.4121C32.1861 19.4121 36.3643 42.401 17.2573 44.9014L13.3535 34.0355Z" fill="#FFB8B8"/>
<path d="M68.8224 3.62793H19.9502V63.9796H68.8224V3.62793Z" fill="#1E2538"/>
<path d="M63.917 7.28955H24.6807V58.9205H63.917V7.28955Z" fill="white"/>
<path d="M55.3345 0H33.9634V9.03499H55.3345V0Z" fill="#FFA700"/>
<path opacity="0.21" d="M51.9486 30.4487H42.2544V32.5768H51.9486V30.4487Z" fill="#A8A8A8"/>
<path opacity="0.21" d="M57.6121 34.6777H42.2544V36.8058H57.6121V34.6777Z" fill="#A8A8A8"/>
<path opacity="0.21" d="M51.9486 44.1328H42.2544V46.2609H51.9486V44.1328Z" fill="#A8A8A8"/>
<path opacity="0.21" d="M57.6121 48.3652H42.2544V50.4933H57.6121V48.3652Z" fill="#A8A8A8"/>
<path d="M38.4296 15.5767H29.6719V24.2974H38.4296V15.5767Z" fill="#60B158"/>
<path d="M38.4296 29.1816H29.6719V37.9024H38.4296V29.1816Z" fill="#60B158"/>
<path d="M38.4296 42.7871H29.6719V51.5078H38.4296V42.7871Z" fill="#60B158"/>
<path d="M32.6187 19.925L33.6512 21.4246L35.7917 18.6646" stroke="white" stroke-width="4" stroke-linecap="round" stroke-linejoin="round"/>
<path d="M32.6187 33.51L33.6512 35.0095L35.7917 32.2461" stroke="white" stroke-width="4" stroke-linecap="round" stroke-linejoin="round"/>
<path opacity="0.1" d="M45.3552 43.4158L44.0654 45.6498L48.4083 45.0998L53.0118 43.4329C53.0118 43.4329 55.3684 47.1903 59.3133 49.4175C63.6653 51.7964 67.007 55.6615 68.7228 60.3005L68.8326 60.6045V39.7676L62.7883 33.4585L45.3552 43.4158Z" fill="black"/>
<path d="M32.6187 47.1936L33.6512 48.6931L35.7917 45.9331" stroke="white" stroke-width="4" stroke-linecap="round" stroke-linejoin="round"/>
<path d="M68.1673 32.3276C68.1673 32.3276 63.2344 27.9245 55.9312 30.9612C50.2128 33.3523 52.9193 36.1636 55.9929 36.0441C59.0665 35.9245 64.2258 33.8374 63.8656 38.9202C63.5397 43.3984 57.962 36.9595 54.7649 37.2123C51.5678 37.4651 51.9348 41.0825 55.8729 43.0671C59.8109 45.0517 65.3406 49.3489 69.6457 45.974C73.9508 42.5991 72.7193 36.6043 68.1673 32.3276Z" fill="#FFB8B8"/>
<path d="M76.007 29.9194L74.4883 26.7729L46.891 39.9809L48.4096 43.1274L76.007 29.9194Z" fill="#007AFF"/>
<path d="M66.8774 47.2313L84.1492 75.2312L98.2411 63.2517L73.4568 38.9922L66.8774 47.2313Z" fill="#1E2538"/>
<path d="M46.8888 39.9829L43.2046 43.7677L48.4084 43.1289L46.8888 39.9829Z" fill="#FF6961"/>
<path d="M19.5076 28.5875C19.5076 28.5875 25.5725 22.415 28.1898 22.9615C30.351 23.4158 30.3544 27.6959 25.6445 31.2621C24.6884 31.978 23.8979 32.8902 23.3268 33.9369C22.7556 34.9836 22.4172 36.1403 22.3342 37.3287C22.2005 39.3201 21.5384 41.6907 19.5076 43.4772C15.2368 47.2347 12.0672 43.9623 12.4788 38.8795C12.8905 33.7967 13.1683 32.2937 19.5076 28.5875Z" fill="#FFB8B8"/>
<path d="M21.8677 42.6712L19.5865 74.0802L0.891113 70.5106L10.2937 39.1768L21.8677 42.6712Z" fill="#1E2538"/>
<path opacity="0.21" d="M51.9486 16.5361H42.2544V18.6642H51.9486V16.5361Z" fill="#A8A8A8"/>
<path opacity="0.21" d="M57.6121 20.7651H42.2544V22.8932H57.6121V20.7651Z" fill="#A8A8A8"/>
<path d="M12.29 72.6866L16.3413 41.0044L21.8676 42.6713L19.5864 74.0803L12.29 72.6866Z" fill="#3A435A"/>
<path d="M66.8774 47.2315L69.9236 43.416L90.3822 69.9334L84.1492 75.2315L66.8774 47.2315Z" fill="#3A435A"/>
</svg>
