<svg width="140" height="103" viewBox="0 0 140 103" fill="none" xmlns="http://www.w3.org/2000/svg">
<path d="M60.0522 90.5103H65.2603V55.1541H60.0522L60.0522 90.5103Z" fill="#DCEAF9"/>
<path d="M61.8799 90.505H60.0599V83.7876H63.8119L61.8799 90.505Z" fill="#DCEAF9"/>
<path d="M115.197 90.5103H120.405V55.1541H115.197V90.5103Z" fill="#DCEAF9"/>
<path d="M60.0579 88.6768H116.786V55.1727L60.0579 55.1727L60.0579 88.6768Z" fill="#EDF6FF"/>
<path d="M114.968 90.505H116.788V83.7876H113.036L114.968 90.505Z" fill="white"/>
<path d="M98.0801 57.9419V85.6685H114.908V57.9419H98.0801Z" fill="#DCEAF9"/>
<path d="M104.832 58.9084H108.164C109.62 58.9084 110.992 58.3831 111.972 57.4985H100.996C102.004 58.4108 103.376 58.9084 104.832 58.9084Z" fill="white"/>
<path d="M80.0063 57.9283V85.6548H96.8343V57.9283H80.0063Z" fill="#DCEAF9"/>
<path d="M86.576 58.9084H89.908C91.364 58.9084 92.736 58.3831 93.716 57.4985H82.74C83.776 58.4108 85.148 58.9084 86.576 58.9084Z" fill="white"/>
<path d="M61.9327 57.9429V85.6694H78.7607V57.9429H61.9327Z" fill="#DCEAF9"/>
<path d="M68.5159 58.9084H71.8479C73.3039 58.9084 74.6759 58.3831 75.6559 57.4985H64.6799C65.6879 58.4108 67.0599 58.9084 68.5159 58.9084Z" fill="#F0F0F0"/>
<path d="M19.5829 90.5249H54.4149L54.4149 11.5748H19.5829L19.5829 90.5249Z" fill="#EDF6FF"/>
<path d="M52.3053 88.7268L52.3053 13.3428L21.7293 13.3428L21.7293 88.7268H52.3053Z" fill="#DCEAF9"/>
<path d="M49.2799 27.3672C49.2799 22.8336 45.5559 19.1294 40.9359 19.1294H33.0399C28.4479 19.1294 24.6959 22.806 24.6959 27.3672H49.2799Z" fill="#FAFAFA"/>
<path d="M49.2845 84.0302V66.0342H24.7006L24.7006 84.0302H49.2845Z" fill="white"/>
<path d="M49.2798 32.4536H38.4438V63.7185H49.2798V32.4536Z" fill="white"/>
<path d="M35.5599 32.4536H24.7239V63.7185H35.5599V32.4536Z" fill="white"/>
<path d="M28.6439 47.9339H24.2199C23.8279 47.9339 23.5199 47.6299 23.5199 47.2428C23.5199 46.8558 23.8279 46.5518 24.2199 46.5518H28.6719C29.0639 46.5518 29.3719 46.8558 29.3719 47.2428C29.3439 47.6299 29.0359 47.9339 28.6439 47.9339Z" fill="#DCEAF9"/>
<path d="M22.2539 88.7342L22.2539 13.3501H21.6939L21.6939 88.7342H22.2539Z" fill="white"/>
<path d="M77.6888 46.5107L115.405 46.5107V11.5693L77.6888 11.5693V46.5107Z" fill="#EDF6FF"/>
<path d="M76.7386 46.5107L114.455 46.5107V11.5693L76.7386 11.5693V46.5107Z" fill="#DCEAF9"/>
<path d="M74.5353 48.5342L115.415 48.5342V46.5162L74.5353 46.5162V48.5342Z" fill="#DCEAF9"/>
<path d="M73.4524 48.5342L112.232 48.5342V46.5162L73.4524 46.5162V48.5342Z" fill="#EDF6FF"/>
<path d="M112.731 44.7113V13.3911L78.4027 13.3911V44.7113L112.731 44.7113Z" fill="white"/>
<path d="M96.5466 44.7113V13.3911H94.6426V44.7113H96.5466Z" fill="#DCEAF9"/>
<path d="M79.1609 44.7089V13.3887H78.4329V44.7089H79.1609Z" fill="#DCEAF9"/>
<path d="M97.269 44.6893V13.3691H96.541V44.6893H97.269Z" fill="#EDF6FF"/>
<path d="M82.7399 47.4363C82.0399 40.3319 81.5639 28.8322 81.9279 24.9621C81.9279 24.8238 82.0119 24.7133 82.1239 24.6303C82.4599 24.4092 82.9079 24.6303 82.8799 25.0173C82.8239 26.9248 82.7399 31.7071 83.1599 39.9172C83.3559 44.0085 83.664 46.8281 83.468 47.4087H82.7399V47.4363Z" fill="#DCEAF9"/>
<path d="M80.1638 31.0714C78.1758 28.9152 74.1438 27.3672 70.0279 27.3672C68.4039 27.3672 74.9278 29.8828 77.6438 32.6748C79.7438 34.831 82.1238 38.4523 82.9358 40.4702C82.4318 36.2408 82.1238 33.2276 80.1638 31.0714Z" fill="#DCEAF9"/>
<path d="M84.0838 31.7345C85.7358 29.4678 89.5158 27.7539 93.6039 27.5604C95.1999 27.4774 89.0959 30.3247 86.7998 33.2273C85.0358 35.4941 83.2158 39.226 82.7118 41.2716C82.5998 36.9868 82.4318 33.9737 84.0838 31.7345Z" fill="#DCEAF9"/>
<path d="M80.0797 23.1652C78.3997 21.3407 74.9837 20.0138 71.5117 20.0414C70.1397 20.0414 75.6837 22.17 77.9797 24.5197C79.7717 26.3442 81.7877 29.4126 82.4597 31.1265C81.9837 27.5329 81.7317 24.9896 80.0797 23.1652Z" fill="#DCEAF9"/>
<path d="M83.3837 25.8743C84.7837 23.9669 87.9757 22.5018 91.4478 22.3359C92.8198 22.2806 87.6397 24.658 85.6797 27.1182C84.1677 29.0257 82.6277 32.177 82.2077 33.9186C82.1237 30.3249 82.0117 27.7817 83.3837 25.8743Z" fill="#DCEAF9"/>
<path d="M83.0196 55.1763C80.8636 55.1763 79.0716 53.5177 78.9316 51.3891L78.5676 45.2246H87.4436L87.0796 51.3891C86.9676 53.49 85.1756 55.1763 83.0196 55.1763Z" fill="#DCEAF9"/>
<path d="M88.0318 46.607H78.0078L77.7278 44.0361H88.3118L88.0318 46.607Z" fill="#DCEAF9"/>
<path d="M70 103C99.9847 103 124.292 101.601 124.292 99.8762C124.292 98.151 99.9847 96.7524 70 96.7524C40.0154 96.7524 15.708 98.151 15.708 99.8762C15.708 101.601 40.0154 103 70 103Z" fill="#EDF6FF"/>
<path d="M71.0919 96.8904L68.7679 97.1392L67.8999 91.9146L70.2239 91.6382L71.0919 96.8904Z" fill="#FFC3BD"/>
<path d="M81.5641 97.3884H79.2401L78.6521 92.0532H80.9761L81.5641 97.3884Z" fill="#FFC3BD"/>
<path d="M79.044 97.1118H81.9C81.984 97.1118 82.068 97.1671 82.096 97.2777L82.544 99.3233C82.6 99.5444 82.432 99.7379 82.208 99.7379C81.284 99.7103 80.612 99.6827 79.464 99.6827C78.764 99.6827 76.608 99.7656 75.628 99.7656C74.676 99.7656 74.508 98.7981 74.928 98.7151C76.72 98.3281 78.092 97.8029 78.652 97.2777C78.764 97.1671 78.904 97.1118 79.044 97.1118Z" fill="#1E2538"/>
<path d="M68.712 96.7525L71.232 96.4761C71.316 96.4761 71.428 96.5314 71.456 96.6143L72.156 98.6046C72.24 98.7981 72.1 99.0193 71.876 99.0469C70.952 99.1298 69.636 99.2404 68.488 99.351C67.144 99.4892 66.92 99.8486 65.324 99.8209C64.372 99.7933 64.12 98.8258 64.512 98.7705C66.36 98.4111 66.696 98.1347 68.152 97.0013C68.348 96.8631 68.516 96.7802 68.712 96.7525Z" fill="#1E2538"/>
<path d="M70.784 29.6613C70 30.2971 69.2159 30.85 68.4319 31.4305C67.6479 31.9834 66.808 32.5363 65.968 33.0338C65.128 33.5314 64.26 34.029 63.364 34.4713C62.468 34.9136 61.516 35.3283 60.48 35.66C60.228 35.7429 59.976 35.7982 59.668 35.8811C59.332 35.9641 59.08 35.9917 58.8 36.0194C58.268 36.0746 57.792 36.1023 57.288 36.1299C56.308 36.1852 55.328 36.1852 54.376 36.1576C52.444 36.1299 50.54 36.047 48.608 35.8811L48.58 34.1396C50.456 33.8908 52.36 33.6973 54.236 33.4761C55.16 33.3656 56.112 33.255 57.008 33.1444C57.456 33.0891 57.904 33.0062 58.324 32.9233C58.52 32.8956 58.744 32.8403 58.856 32.8127C59.024 32.7574 59.22 32.7021 59.416 32.6192C60.172 32.3151 60.956 31.9281 61.74 31.4858C62.524 31.0435 63.28 30.5736 64.064 30.076C64.82 29.5784 65.5759 29.0532 66.3319 28.5279C67.0879 28.0027 67.844 27.4498 68.544 26.897L70.784 29.6613Z" fill="#FFC3BD"/>
<path d="M73.052 27.6988C72.716 29.8826 68.068 33.1998 68.068 33.1998L64.736 29.1086C64.736 29.1086 67.144 26.5654 69.384 24.7409C70.896 23.5522 73.416 25.3214 73.052 27.6988Z" fill="#007AFF"/>
<path d="M49.252 34.3334L47.936 33.3936L47.796 36.3238C47.796 36.3238 48.524 36.3238 48.804 35.7985L49.252 34.3334Z" fill="#FFC3BD"/>
<path d="M46.732 32.564L46.452 35.4389L47.768 36.3511L47.936 33.4209L46.732 32.564Z" fill="#FFC3BD"/>
<path opacity="0.2" d="M67.8999 91.9146L68.3479 94.596L70.6719 94.3472L70.2239 91.6382L67.8999 91.9146Z" fill="#1E2538"/>
<path opacity="0.2" d="M80.9758 92.0527H78.6519L78.9599 94.7895H81.2838L80.9758 92.0527Z" fill="#1E2538"/>
<path d="M81.0041 24.824C81.7321 24.9898 82.1801 25.7086 82.0121 26.4273C81.4801 28.5558 81.1161 30.6844 80.8641 32.73C80.6401 34.5269 80.5001 36.2131 80.4161 37.7612C80.2201 41.3825 80.3041 44.1468 80.1921 45.0867C78.3721 44.9485 71.4841 44.4785 67.7321 44.2298C66.4721 34.4439 67.9561 28.1965 68.7961 25.6533C69.0481 24.8516 69.7761 24.2711 70.6161 24.1605C71.0921 24.1052 71.6801 24.0499 72.2681 23.9946C72.4921 23.9946 72.6881 23.967 72.9121 23.967C74.3121 23.9394 76.6361 24.1329 78.2041 24.3264C78.5401 24.354 78.8761 24.4093 79.2121 24.4646C79.8841 24.6028 80.5001 24.7134 81.0041 24.824Z" fill="#FFA700"/>
<path d="M78.12 18.438C77.672 20.0966 77.112 23.165 78.232 24.3537C75.348 26.2611 73.5 28.9702 72.968 28.3897C72.688 28.0856 72.576 24.5196 72.94 23.9944C74.872 23.6903 74.928 22.2805 74.676 20.9536L78.12 18.438Z" fill="#FFC3BD"/>
<path d="M78.008 23.6626C78.008 23.6626 73.304 25.7082 72.688 30.3247C73.976 28.832 76.86 27.2286 76.86 27.2286L75.6 26.8693C75.6 26.8693 76.72 26.427 78.092 26.2058C77.952 25.57 78.708 24.2984 78.708 24.2984L78.008 23.6626Z" fill="#007AFF"/>
<path d="M73.7521 23.5801C73.7521 23.5801 74.3681 26.2062 72.6601 30.2975C72.4081 28.7218 71.2881 26.1233 71.2881 26.1233L72.4361 26.4274C72.4361 26.4274 72.3801 25.9021 71.4561 25.1834C71.7921 24.52 72.8841 23.7459 72.8841 23.7459L73.7521 23.5801Z" fill="#007AFF"/>
<path opacity="0.2" d="M76.72 19.4609L74.676 20.9537C74.732 21.2578 74.76 21.5895 74.76 21.8936C75.488 21.8383 76.552 21.1196 76.664 20.3732C76.748 19.9862 76.748 19.6268 76.72 19.4609Z" fill="#1E2538"/>
<path d="M72.1279 13.6279C70.9799 13.6832 70.3639 15.6183 71.5119 17.2216C72.6879 18.7973 73.6679 13.545 72.1279 13.6279Z" fill="#1E2538"/>
<path d="M77.7561 15.3144C77.8961 17.6088 78.0921 18.9357 77.0561 20.2349C75.5161 22.1976 72.5761 21.4789 71.7361 19.2951C71.0081 17.3047 70.8961 13.9046 73.0241 12.7435C75.1521 11.6101 77.6161 13.0476 77.7561 15.3144Z" fill="#FFC3BD"/>
<path d="M78.0921 17.0836C76.3281 15.9779 75.7121 14.5128 75.5721 13.794C74.9001 13.9599 71.5121 15.4803 70.4761 13.794C69.4401 12.1078 70.7561 11.1126 72.6881 12.1631C71.8201 10.6703 72.6041 9.92392 75.3201 9.86863C78.0081 9.81335 77.6721 11.3614 77.6721 11.3614C77.6721 11.3614 79.7161 10.4768 80.4441 12.0248C81.2561 13.7664 79.7161 16.8072 78.0921 17.0836Z" fill="#1E2538"/>
<path d="M77.196 10.9191C77.224 10.9191 78.232 11.1679 79.3801 10.0068C79.184 10.9744 77.392 11.6378 77.392 11.6378L77.196 10.9191Z" fill="#1E2538"/>
<path d="M78.5402 14.2638C77.4761 13.9045 76.1601 15.4801 76.6362 17.3875C77.1122 19.2673 79.9962 14.7614 78.5402 14.2638Z" fill="#1E2538"/>
<path d="M79.156 17.2218C79.044 17.83 78.68 18.3276 78.26 18.6317C77.616 19.074 77.056 18.5764 77.028 17.8576C77 17.2218 77.28 16.199 78.036 16.0608C78.736 15.8949 79.268 16.5308 79.156 17.2218Z" fill="#FFC3BD"/>
<path d="M71.26 70.2146C71.82 63.4696 75.936 44.8102 75.936 44.8102L67.76 44.2573C67.76 44.2573 64.596 62.7785 64.372 69.8C64.12 77.0979 67.088 93.3523 67.088 93.3523L71.008 92.91C71.008 92.91 70.7 76.9873 71.26 70.2146Z" fill="#007AFF"/>
<path d="M71.26 70.2146C71.82 63.4696 75.936 44.8102 75.936 44.8102L67.76 44.2573C67.76 44.2573 64.596 62.7785 64.372 69.8C64.12 77.0979 67.088 93.3523 67.088 93.3523L71.008 92.91C71.008 92.91 70.7 76.9873 71.26 70.2146Z" fill="#1E2538"/>
<path opacity="0.2" d="M72.856 51.1128C71.204 53.1861 71.176 60.5116 71.82 65.9297C72.436 62.032 73.388 57.0838 74.228 52.9373L72.856 51.1128Z" fill="#1E2538"/>
<path d="M72.1841 44.5337C72.1841 44.5337 73.0801 64.2712 74.0601 70.961C75.1521 78.2865 77.8681 94.2645 77.8681 94.2645H82.1521C82.1521 94.2645 81.4521 79.1987 80.8921 72.0114C80.2481 63.8289 80.2201 45.0866 80.2201 45.0866L72.1841 44.5337Z" fill="#007AFF"/>
<path d="M72.1841 44.5337C72.1841 44.5337 73.0801 64.2712 74.0601 70.961C75.1521 78.2865 77.8681 94.2645 77.8681 94.2645H82.1521C82.1521 94.2645 81.4521 79.1987 80.8921 72.0114C80.2481 63.8289 80.2201 45.0866 80.2201 45.0866L72.1841 44.5337Z" fill="#2C354D"/>
<path d="M77.3641 94.3477H82.4041V92.8825L76.7761 92.772L77.3641 94.3477Z" fill="#007AFF"/>
<path d="M66.9199 93.7943L71.5959 93.2691L71.4279 91.7764L66.1919 92.2739L66.9199 93.7943Z" fill="#007AFF"/>
<path d="M74.34 16.3646C74.368 16.5581 74.284 16.724 74.172 16.724C74.06 16.7516 73.92 16.6134 73.92 16.4199C73.892 16.2264 73.976 16.0605 74.088 16.0605C74.2 16.0605 74.312 16.1988 74.34 16.3646Z" fill="#1E2538"/>
<path d="M72.2401 16.6136C72.2681 16.8072 72.1841 16.973 72.0721 16.973C71.9601 17.0007 71.8201 16.8624 71.8201 16.6689C71.7921 16.4754 71.8761 16.3096 71.9881 16.3096C72.1001 16.3096 72.2121 16.4478 72.2401 16.6136Z" fill="#1E2538"/>
<path d="M72.9122 16.6411C72.9122 16.6411 72.6042 17.7469 72.2122 18.3274C72.5762 18.6038 73.1362 18.3827 73.1362 18.3827L72.9122 16.6411Z" fill="#FF6961"/>
<path d="M74.9279 15.6184C74.8999 15.6184 74.8439 15.6184 74.8159 15.5908C74.4799 15.2314 74.0599 15.3143 74.0599 15.3143C74.0039 15.3143 73.9479 15.2867 73.9199 15.2314C73.9199 15.1761 73.9479 15.1208 74.0039 15.0932C74.0319 15.0932 74.5359 15.0103 74.9559 15.4249C75.0119 15.4802 74.9839 15.5355 74.9559 15.5908C74.9559 15.6184 74.9279 15.6184 74.9279 15.6184Z" fill="#1E2538"/>
<path d="M74.116 19.1291C75.04 18.9079 75.32 18.1892 75.32 18.1615C75.32 18.1339 75.32 18.1063 75.292 18.0786C75.264 18.0786 75.236 18.0786 75.208 18.1063C75.208 18.1063 74.956 18.7973 74.088 19.0185C74.06 19.0185 74.032 19.0461 74.032 19.1014C74.06 19.1014 74.088 19.1291 74.116 19.1291Z" fill="#1E2538"/>
<path d="M71.2321 16.0056C71.2041 16.0056 71.1761 16.0056 71.1761 16.0056C71.1201 15.978 71.0921 15.9227 71.1201 15.8674C71.3161 15.2869 71.8201 15.1763 71.8481 15.1763C71.9041 15.1487 71.9601 15.2039 71.9881 15.2592C72.0161 15.3145 71.9601 15.3698 71.9041 15.3974C71.8761 15.3974 71.5121 15.508 71.3441 15.9503C71.2881 15.978 71.2601 16.0056 71.2321 16.0056Z" fill="#1E2538"/>
<path d="M78.26 97.5265C78.092 97.5265 77.924 97.4988 77.812 97.4159C77.7279 97.3329 77.7 97.25 77.7 97.1394C77.7 97.0565 77.7559 97.0012 77.7839 96.9736C78.036 96.8354 78.792 97.3053 78.876 97.3606C78.904 97.3606 78.904 97.3882 78.904 97.4159C78.904 97.4435 78.876 97.4435 78.876 97.4712C78.708 97.4712 78.484 97.5265 78.26 97.5265ZM77.924 97.0289C77.896 97.0289 77.868 97.0289 77.84 97.0289C77.812 97.0289 77.812 97.0565 77.812 97.0842C77.812 97.1671 77.84 97.2224 77.896 97.2777C78.036 97.3882 78.316 97.3882 78.736 97.3329C78.456 97.2224 78.092 97.0289 77.924 97.0289Z" fill="#007AFF"/>
<path d="M78.8479 97.4437C78.5679 97.3055 78.1199 96.8079 78.1759 96.5591C78.1759 96.5038 78.2319 96.4209 78.3439 96.4209C78.4279 96.4209 78.5119 96.4209 78.5679 96.5038C78.8479 96.725 78.9039 97.3884 78.9039 97.4161C78.9039 97.4437 78.9039 97.4437 78.8759 97.4714C78.8759 97.4437 78.8759 97.4437 78.8479 97.4437ZM78.3999 96.5038C78.3719 96.5038 78.3719 96.5038 78.3999 96.5038C78.3159 96.5038 78.2879 96.5591 78.2879 96.5591C78.2599 96.6973 78.5679 97.0844 78.7919 97.2779C78.7639 97.0844 78.6799 96.6973 78.5119 96.5591C78.4839 96.5315 78.4279 96.5038 78.3999 96.5038Z" fill="#007AFF"/>
<path d="M68.5161 97.0842C68.1521 97.1948 67.4801 97.3607 67.2001 97.1672C67.1161 97.1119 67.0601 97.029 67.0601 96.9184C67.0601 96.8631 67.0881 96.8078 67.1441 96.7525C67.3961 96.559 68.4041 96.9184 68.5161 96.9737C68.5441 96.9737 68.5441 97.0013 68.5441 97.0289C68.5721 97.0566 68.5441 97.0842 68.5161 97.0842ZM67.2281 96.8631C67.2001 96.8907 67.1721 96.8907 67.2001 96.946C67.2001 97.029 67.2281 97.0842 67.2841 97.1119C67.4521 97.2225 67.8161 97.1948 68.3201 97.0566C67.9281 96.8907 67.3961 96.7525 67.2281 96.8631Z" fill="#007AFF"/>
<path d="M68.516 97.0843C68.516 97.0843 68.488 97.0843 68.46 97.0843C68.152 97.0014 67.564 96.5591 67.564 96.2827C67.564 96.2274 67.592 96.1444 67.76 96.1168C67.872 96.0892 67.984 96.1168 68.068 96.1721C68.404 96.3656 68.516 97.0014 68.516 97.0014C68.572 97.0567 68.544 97.0567 68.516 97.0843C68.544 97.0843 68.544 97.0843 68.516 97.0843ZM67.732 96.255C67.704 96.2827 67.704 96.3103 67.704 96.3103C67.704 96.4762 68.124 96.8079 68.432 96.9461C68.376 96.7802 68.264 96.4209 68.04 96.2827C67.956 96.2274 67.9 96.2274 67.816 96.2274C67.788 96.2274 67.76 96.255 67.732 96.255Z" fill="#007AFF"/>
<path d="M82.992 28.1685C82.936 29.0808 82.824 29.9101 82.712 30.767C82.6 31.624 82.46 32.4809 82.292 33.3379C81.956 35.0518 81.536 36.7657 80.864 38.4796L80.584 39.1154L80.5 39.2812L80.472 39.3089L80.444 39.3642L80.36 39.53C80.248 39.7235 80.108 39.917 79.968 40.0553C79.688 40.3593 79.408 40.5805 79.128 40.7464C78.848 40.9122 78.596 41.0228 78.316 41.1334C77.28 41.5204 76.356 41.6309 75.432 41.7139C73.612 41.8521 71.848 41.7692 70.084 41.5204L70.14 39.7788L71.372 39.6406C71.792 39.5853 72.184 39.53 72.604 39.4748C73.416 39.3642 74.228 39.226 75.012 39.0601C75.768 38.8942 76.524 38.6731 77.084 38.3967C77.336 38.2584 77.532 38.0926 77.532 38.0649C77.532 38.0373 77.448 38.2031 77.56 37.9267L77.756 37.4015C78.204 35.9364 78.54 34.333 78.792 32.7297C78.932 31.9281 79.044 31.1264 79.156 30.2971C79.268 29.4954 79.352 28.6661 79.436 27.8921L82.992 28.1685Z" fill="#FFC3BD"/>
<path d="M83.1879 26.4825C84.3359 28.3622 83.3559 34.3332 83.3559 34.3332L77.3639 33.2275C77.3639 33.2275 77.0279 29.8273 78.1759 27.2012C79.4359 24.3539 81.8159 24.1881 83.1879 26.4825Z" fill="#007AFF"/>
<path d="M68.516 45.1419L65.352 30.5461C65.072 29.3021 63.84 28.2793 62.58 28.2793H52.696H50.4C51.66 28.2793 52.92 29.3021 53.172 30.5461L56.336 45.1419C56.616 46.3858 57.848 47.4087 59.108 47.4087H68.992H71.288C70.028 47.4087 68.796 46.4135 68.516 45.1419Z" fill="#1E2538"/>
<path d="M68.516 45.1419L65.352 30.5461C65.072 29.3021 63.84 28.2793 62.58 28.2793H52.696H50.4C51.66 28.2793 52.92 29.3021 53.172 30.5461L56.336 45.1419C56.616 46.3858 57.848 47.4087 59.108 47.4087H68.992H71.288C70.028 47.4087 68.796 46.4135 68.516 45.1419Z" fill="#7ECB76"/>
<path d="M45.4375 46.194L45.1189 49.6074L45.3977 49.6328L45.7163 46.2194L45.4375 46.194Z" fill="#60B158"/>
<path d="M45.0042 50.948L44.8706 52.3794L45.1494 52.4048L45.283 50.9733L45.0042 50.948Z" fill="#60B158"/>
<path d="M50.3721 28.3071H60.2561H62.5521C61.2921 28.3071 60.1721 29.3299 60.0601 30.5739L56.8961 64.4926C56.7841 65.7365 55.6641 66.7594 54.4041 66.7594H46.8161C45.5561 66.7594 44.6321 65.7365 44.7441 64.4926L47.8801 30.5739C47.9921 29.3023 49.1121 28.3071 50.3721 28.3071Z" fill="#60B158"/>
<path d="M52.332 64.4648C52.22 65.7088 53.144 66.7316 54.404 66.7316H52.108H42.224C40.964 66.7316 40.04 65.7088 40.152 64.4648H52.332Z" fill="#1E2538"/>
<path d="M52.332 64.4648C52.22 65.7088 53.144 66.7316 54.404 66.7316H52.108H42.224C40.964 66.7316 40.04 65.7088 40.152 64.4648H52.332Z" fill="#7ECB76"/>
<g opacity="0.5">
<path opacity="0.5" d="M57.96 32.0943H49.728C49.448 32.0943 49.252 31.8731 49.28 31.5967C49.308 31.3203 49.56 31.0991 49.812 31.0991H58.044C58.324 31.0991 58.52 31.3203 58.492 31.5967C58.464 31.8731 58.212 32.0943 57.96 32.0943Z" fill="white"/>
<path opacity="0.5" d="M57.708 34.7481H49.476C49.196 34.7481 49.0001 34.5269 49.0281 34.2505C49.0561 33.9741 49.308 33.7529 49.56 33.7529H57.792C58.072 33.7529 58.268 33.9741 58.24 34.2505C58.212 34.5269 57.988 34.7481 57.708 34.7481Z" fill="white"/>
<path opacity="0.5" d="M55.44 37.4292H49.224C48.944 37.4292 48.748 37.2081 48.776 36.9317C48.804 36.6552 49.056 36.4341 49.308 36.4341H55.524C55.804 36.4341 56 36.6552 55.972 36.9317C55.944 37.2081 55.72 37.4292 55.44 37.4292Z" fill="white"/>
<path opacity="0.5" d="M51.072 40.0835H48.972C48.692 40.0835 48.496 39.8624 48.524 39.586C48.552 39.3095 48.804 39.0884 49.056 39.0884H51.156C51.436 39.0884 51.632 39.3095 51.604 39.586C51.604 39.8624 51.352 40.0835 51.072 40.0835Z" fill="white"/>
<path opacity="0.5" d="M56.9801 42.7369H48.7201C48.4401 42.7369 48.2441 42.5157 48.2721 42.2393C48.3001 41.9629 48.5521 41.7417 48.8041 41.7417H57.0361C57.3161 41.7417 57.5121 41.9629 57.4841 42.2393C57.4841 42.5157 57.2321 42.7369 56.9801 42.7369Z" fill="white"/>
<path opacity="0.5" d="M53.4801 45.4185H48.4961C48.2161 45.4185 48.0201 45.1974 48.0481 44.9209C48.0761 44.6445 48.3281 44.4233 48.5801 44.4233H53.5641C53.8441 44.4233 54.0401 44.6445 54.0121 44.9209C53.9841 45.1974 53.7601 45.4185 53.4801 45.4185Z" fill="white"/>
<path opacity="0.5" d="M56.4761 48.0723H48.2441C47.9641 48.0723 47.7681 47.8512 47.7961 47.5747C47.8241 47.2983 48.0761 47.0771 48.3281 47.0771H56.5601C56.8401 47.0771 57.0361 47.2983 57.0081 47.5747C57.0081 47.8512 56.7561 48.0723 56.4761 48.0723Z" fill="white"/>
<path opacity="0.5" d="M54.2082 50.7261H47.9922C47.7122 50.7261 47.5162 50.505 47.5442 50.2285C47.5722 49.9521 47.8242 49.731 48.0762 49.731H54.2922C54.5722 49.731 54.7682 49.9521 54.7402 50.2285C54.7402 50.505 54.4882 50.7261 54.2082 50.7261Z" fill="white"/>
<path opacity="0.5" d="M49.868 53.3799H47.768C47.488 53.3799 47.292 53.1588 47.32 52.8824C47.348 52.6059 47.6 52.3848 47.852 52.3848H49.952C50.232 52.3848 50.428 52.6059 50.4 52.8824C50.372 53.1588 50.12 53.3799 49.868 53.3799Z" fill="white"/>
<path opacity="0.5" d="M55.7481 56.0611H47.5161C47.2361 56.0611 47.0401 55.8399 47.0681 55.5635C47.0961 55.2871 47.3481 55.0659 47.6001 55.0659H55.8321C56.1121 55.0659 56.3081 55.2871 56.2801 55.5635C56.2521 55.8399 56.0281 56.0611 55.7481 56.0611Z" fill="white"/>
<path opacity="0.5" d="M52.248 58.7149H47.264C46.984 58.7149 46.788 58.4938 46.816 58.2173C46.844 57.9409 47.096 57.7197 47.348 57.7197H52.332C52.612 57.7197 52.808 57.9409 52.78 58.2173C52.78 58.4938 52.528 58.7149 52.248 58.7149Z" fill="white"/>
<path opacity="0.5" d="M55.2441 61.3687H47.0121C46.7321 61.3687 46.5361 61.1476 46.5641 60.8711C46.5921 60.5947 46.8441 60.3735 47.0961 60.3735H55.3281C55.6081 60.3735 55.8041 60.5947 55.7761 60.8711C55.7761 61.1476 55.5241 61.3687 55.2441 61.3687Z" fill="white"/>
</g>
<path d="M70.8962 40.0002L69.1042 38.4521L68.2642 41.2718C68.2642 41.2718 70.0842 42.2393 70.7002 41.3547L70.8962 40.0002Z" fill="#FFC3BD"/>
<path d="M67.172 38.3413L66.584 40.7187L68.264 41.2715L69.104 38.4519L67.172 38.3413Z" fill="#FFC3BD"/>
<path d="M111.642 96.4279C111.638 96.428 111.633 96.4276 111.628 96.4266C111.62 96.4248 111.611 96.4213 111.604 96.4163C111.597 96.4113 111.59 96.4049 111.586 96.3975C111.581 96.3901 111.577 96.3818 111.576 96.3731C111.574 96.3645 111.575 96.3556 111.576 96.347C112.971 89.8901 112.318 83.7605 109.637 78.1271C107.99 74.6276 105.611 71.5113 102.658 68.983C102.651 68.9775 102.645 68.9706 102.641 68.9629C102.637 68.9552 102.634 68.9467 102.633 68.938C102.633 68.9293 102.633 68.9205 102.636 68.9121C102.639 68.9038 102.643 68.896 102.649 68.8893C102.654 68.8825 102.661 68.8769 102.669 68.8729C102.677 68.8688 102.685 68.8663 102.694 68.8655C102.703 68.8647 102.712 68.8657 102.72 68.8683C102.729 68.8709 102.737 68.8752 102.744 68.8808C105.712 71.4216 108.103 74.5534 109.758 78.0706C112.453 83.7307 113.109 89.889 111.708 96.3743C111.705 96.3894 111.697 96.4029 111.685 96.4127C111.673 96.4225 111.658 96.4278 111.642 96.4279Z" fill="#263238"/>
<path d="M114.157 84.3325C113.71 85.2872 113.027 86.1154 112.17 86.7408C112.025 85.6959 112.173 84.6316 112.599 83.6642C113.025 82.6969 113.712 81.8637 114.585 81.2559C114.707 82.3006 114.559 83.3587 114.157 84.3325Z" fill="#263238"/>
<path d="M107.895 76.3064C108.769 76.9082 109.475 77.7176 109.948 78.6598C108.88 78.6177 107.845 78.2866 106.955 77.7028C106.065 77.119 105.354 76.3049 104.901 75.3496C105.965 75.4153 106.994 75.7443 107.895 76.3064Z" fill="#263238"/>
<path d="M106.834 69.7294C106.979 70.7713 106.855 71.8324 106.475 72.8148C105.782 72.0119 105.326 71.0364 105.157 69.9949C104.988 68.9534 105.112 67.8861 105.516 66.9097C106.188 67.7254 106.642 68.6951 106.834 69.7294Z" fill="#007AFF"/>
<path d="M103.22 68.8771C103.232 68.9785 103.212 69.081 103.165 69.1715C103.117 69.2621 103.043 69.3366 102.952 69.3857C102.862 69.4348 102.758 69.4563 102.655 69.4474C102.552 69.4386 102.454 69.3998 102.374 69.3359C102.293 69.272 102.233 69.186 102.202 69.0887C102.171 68.9913 102.17 68.8871 102.199 68.7891C102.228 68.6911 102.285 68.6038 102.365 68.5382C102.444 68.4726 102.541 68.4317 102.644 68.4205C102.782 68.4057 102.92 68.4454 103.028 68.531C103.136 68.6166 103.205 68.7411 103.22 68.8771Z" fill="#007AFF"/>
<path d="M113.221 95.1092C113.208 95.1092 113.195 95.1053 113.184 95.098C113.173 95.0907 113.164 95.0804 113.159 95.0683C110.897 89.7559 110.445 84.3933 111.815 79.1297C112.65 75.8618 114.176 72.8052 116.293 70.1607C116.305 70.1482 116.321 70.1405 116.338 70.1393C116.355 70.1381 116.372 70.1435 116.385 70.1544C116.399 70.1652 116.407 70.1806 116.409 70.1975C116.411 70.2144 116.407 70.2315 116.397 70.2451C114.292 72.8746 112.775 75.9137 111.945 79.1629C110.582 84.3978 111.032 89.732 113.282 95.0174C113.286 95.0254 113.288 95.034 113.288 95.0427C113.288 95.0515 113.286 95.0601 113.283 95.0682C113.279 95.0762 113.274 95.0836 113.268 95.0898C113.262 95.0959 113.254 95.1008 113.246 95.1042C113.238 95.1076 113.23 95.1093 113.221 95.1092Z" fill="#263238"/>
<path d="M110.145 89.3783C110.571 89.8179 111.103 90.1445 111.69 90.3279C111.571 89.729 111.287 89.174 110.87 88.7236C110.453 88.2732 109.918 87.9448 109.324 87.7744C109.457 88.3686 109.739 88.9202 110.145 89.3783Z" fill="#007AFF"/>
<path d="M112.1 79.4106C111.724 79.9834 111.499 80.6406 111.448 81.3216C112.08 81.0388 112.621 80.5899 113.012 80.0241C113.403 79.4583 113.629 78.7972 113.665 78.1133C113.041 78.4093 112.503 78.8554 112.1 79.4106Z" fill="#007AFF"/>
<path d="M111.992 75.4329C112.042 75.991 112.233 76.5277 112.549 76.9935C112.812 76.4956 112.932 75.9357 112.895 75.375C112.858 74.8144 112.666 74.2745 112.339 73.8145C112.088 74.3166 111.968 74.8732 111.992 75.4329Z" fill="#007AFF"/>
<path d="M115.365 72.0629C114.892 72.3718 114.505 72.7935 114.24 73.289C114.809 73.2807 115.365 73.118 115.847 72.8188C116.329 72.5195 116.718 72.0952 116.972 71.5923C116.405 71.6134 115.852 71.7752 115.365 72.0629Z" fill="#007AFF"/>
<path d="M115.893 70.2378C115.9 70.3262 115.933 70.4105 115.989 70.4802C116.045 70.5498 116.12 70.6016 116.205 70.629C116.291 70.6564 116.383 70.6582 116.469 70.6341C116.556 70.6101 116.633 70.5612 116.691 70.4938C116.749 70.4264 116.786 70.3434 116.797 70.2553C116.807 70.1673 116.791 70.0781 116.75 69.9991C116.71 69.9201 116.646 69.8548 116.568 69.8115C116.489 69.7682 116.4 69.7488 116.31 69.7558C116.19 69.7652 116.079 69.8212 116 69.9116C115.922 70.002 115.884 70.1193 115.893 70.2378Z" fill="#007AFF"/>
<path d="M117.538 99.4296L117.286 99.3372C117.454 98.8718 117.538 98.3805 117.531 97.8862H117.8C117.806 98.412 117.718 98.9346 117.538 99.4296Z" fill="#007AFF"/>
<path d="M117.328 96.497C117.047 95.5474 116.489 94.7005 115.723 94.0619L115.897 93.8594C116.702 94.5317 117.29 95.423 117.586 96.4224L117.328 96.497Z" fill="#007AFF"/>
<path d="M114.362 93.9736L114.907 91.7681H110.008L110.553 93.9736C109.806 94.3271 109.175 94.8819 108.733 95.5741C108.291 96.2663 108.056 97.0677 108.056 97.8858C108.056 100.285 110.026 101.15 112.458 101.15C114.889 101.15 116.859 100.284 116.859 97.8858C116.859 97.0677 116.624 96.2663 116.182 95.5741C115.741 94.8819 115.109 94.3271 114.362 93.9736Z" fill="#007AFF"/>
</svg>
