<svg width="81" height="122" viewBox="0 0 81 122" fill="none" xmlns="http://www.w3.org/2000/svg">
<path d="M64.2312 98.1391C64.1701 98.2089 64.109 98.2807 64.0499 98.3524C63.224 99.3219 62.4779 100.358 61.8191 101.45C61.7659 101.534 61.7146 101.62 61.6673 101.704C60.1076 104.343 59.0458 107.252 58.5359 110.284C58.4216 110.97 58.3356 111.659 58.2777 112.353C58.2364 112.887 58.2114 113.422 58.2029 113.958C58.1713 116.207 58.3684 118.709 56.9357 120.427C56.5527 120.879 56.0853 121.251 55.5602 121.52C55.1646 121.727 54.7467 121.887 54.3147 121.996H49.8471C49.6225 121.962 49.3978 121.926 49.1732 121.89C49.1673 121.89 49.1613 121.888 49.1554 121.888L49.1101 121.904L48.8401 121.996L48.8283 122V121.996C48.8286 121.988 48.828 121.98 48.8263 121.972C48.8266 121.958 48.826 121.943 48.8243 121.928V121.926C48.8224 121.886 48.8204 121.849 48.8204 121.809L48.8145 121.703C48.8145 121.703 48.8125 121.701 48.8145 121.701C48.8125 121.641 48.8086 121.581 48.8066 121.52C48.5997 116.316 49.1042 110.94 51.5321 106.359C52.3646 104.789 53.4367 103.362 54.7088 102.13C54.7162 102.122 54.7241 102.115 54.7325 102.108C57.2569 99.6722 60.5204 98.0793 63.9652 98.1332C64.0538 98.1332 64.1425 98.1351 64.2312 98.1391Z" fill="#F0F0F0"/>
<path d="M64.2416 98.2518C60.3401 100.277 57.1687 103.495 55.1778 107.447C54.7343 108.29 54.4249 109.199 54.2611 110.14C54.1308 111.061 54.2468 112.001 54.5971 112.862C54.9077 113.671 55.3181 114.463 55.4289 115.334C55.4791 115.781 55.4352 116.234 55.3003 116.663C55.1654 117.091 54.9424 117.486 54.646 117.822C53.929 118.677 52.951 119.22 51.9763 119.718C50.8942 120.271 49.7615 120.828 49.0101 121.827C48.9191 121.948 48.7387 121.798 48.8296 121.677C50.1368 119.939 52.4391 119.559 54.007 118.146C54.7386 117.486 55.2781 116.599 55.2172 115.578C55.164 114.685 54.7415 113.868 54.4199 113.052C54.0661 112.217 53.9196 111.307 53.9934 110.402C54.1094 109.456 54.3836 108.537 54.8044 107.684C55.7215 105.748 56.9338 103.971 58.3967 102.416C60.0567 100.632 62.006 99.149 64.1604 98.0303C64.2938 97.9611 64.3741 98.1831 64.2416 98.2518H64.2416Z" fill="white"/>
<path d="M55.7448 106.136C55.1346 105.708 54.6946 105.075 54.5035 104.349C54.3123 103.623 54.3824 102.852 54.7013 102.174C54.7662 102.037 54.9798 102.133 54.9147 102.27C54.6167 102.901 54.5514 103.619 54.7308 104.295C54.9102 104.97 55.3223 105.558 55.8928 105.953C56.0167 106.039 55.8679 106.222 55.7448 106.136V106.136Z" fill="white"/>
<path d="M54.3858 112.473C55.8817 112.212 57.2256 111.392 58.1497 110.173C58.2412 110.053 58.4216 110.203 58.3302 110.323C57.3663 111.589 55.966 112.44 54.4088 112.708C54.2604 112.733 54.2382 112.498 54.3858 112.473V112.473Z" fill="white"/>
<path d="M60.179 100.92C60.381 101.135 60.6327 101.296 60.9115 101.389C61.1903 101.481 61.4875 101.503 61.7764 101.45C61.9244 101.423 61.9464 101.658 61.7993 101.685C61.4799 101.742 61.1517 101.718 60.8435 101.616C60.5352 101.515 60.2562 101.338 60.031 101.102C60.0079 101.082 59.9933 101.053 59.9903 101.022C59.9873 100.992 59.996 100.961 60.0147 100.936C60.0344 100.912 60.0628 100.897 60.0935 100.894C60.1243 100.891 60.155 100.9 60.179 100.92V100.92Z" fill="white"/>
<path d="M75.1116 112.565C75.021 112.585 74.9303 112.605 74.8377 112.626H74.8357C73.6007 112.898 72.3894 113.27 71.2136 113.739C71.123 113.775 71.0323 113.811 70.9417 113.849H70.9397C68.1368 115.003 65.5686 116.671 63.3644 118.769C63.3565 118.777 63.3486 118.783 63.3407 118.791C63.336 118.796 63.3307 118.802 63.325 118.807L63.3151 118.816C62.4405 119.655 61.6295 120.558 60.8892 121.52C60.8892 121.522 60.8872 121.524 60.8852 121.526C60.767 121.681 60.6468 121.837 60.5286 121.996H48.8404L48.8286 122V121.996H48.7793C48.7793 121.994 48.7813 121.992 48.7832 121.99C48.7832 121.988 48.7852 121.988 48.7852 121.986C48.799 121.966 48.8128 121.946 48.8246 121.928V121.926C48.8276 121.92 48.8316 121.915 48.8364 121.91C48.8483 121.891 48.8621 121.875 48.8719 121.857C48.9507 121.745 49.0276 121.631 49.1064 121.52C49.2345 121.334 49.3646 121.149 49.4966 120.966C49.4966 120.965 49.4967 120.965 49.4968 120.965C49.4969 120.965 49.497 120.964 49.4972 120.964C49.4974 120.964 49.4976 120.964 49.4978 120.964C49.4981 120.964 49.4983 120.964 49.4986 120.964V120.962C49.5006 120.96 49.5006 120.958 49.5025 120.956L49.5065 120.952C51.1323 118.675 52.9611 116.514 55.0559 114.704C55.119 114.648 55.1821 114.592 55.2491 114.54C56.1976 113.728 57.2107 112.997 58.278 112.353C58.8613 112.004 59.4624 111.684 60.0812 111.392C61.6773 110.648 63.379 110.163 65.1242 109.953H65.1281C65.1321 109.953 65.136 109.951 65.1419 109.951C65.1478 109.951 65.1518 109.949 65.1557 109.949C68.6261 109.542 72.1832 110.258 74.9047 112.399C74.9757 112.455 75.0427 112.509 75.1116 112.565Z" fill="#F0F0F0"/>
<path d="M48.7794 121.996H48.8286V122L48.8405 121.996H51.968C51.0358 121.835 50.1057 121.709 49.1735 121.891C49.1518 121.895 49.1321 121.899 49.1105 121.905C49.0159 121.922 48.9213 121.946 48.8267 121.972C48.8208 121.974 48.8129 121.976 48.807 121.978C48.7984 121.981 48.7903 121.985 48.7833 121.99C48.7783 121.991 48.7735 121.993 48.7695 121.996H48.7794Z" fill="white"/>
<path d="M75.0545 112.662C74.9816 112.65 74.9107 112.636 74.8377 112.626H74.8358C73.3153 112.375 71.7719 112.297 70.2342 112.391C70.1573 112.395 70.0785 112.401 69.9997 112.405C67.8652 112.555 65.7666 113.039 63.7782 113.838C63.7763 113.838 63.7763 113.838 63.7763 113.84C63.7546 113.848 63.7329 113.856 63.7132 113.864C63.2501 114.054 62.7929 114.261 62.3455 114.484C61.4895 114.887 60.7014 115.424 60.0103 116.075C59.4569 116.628 59.038 117.303 58.7865 118.047C58.7608 118.122 58.7352 118.196 58.7116 118.272C58.6938 118.332 58.6761 118.394 58.6584 118.453C58.4258 119.289 58.282 120.17 57.8524 120.933C57.7327 121.146 57.587 121.343 57.4188 121.519C57.245 121.703 57.049 121.863 56.8355 121.996H56.3389C56.6107 121.877 56.8626 121.716 57.0858 121.519C57.2593 121.368 57.4112 121.193 57.5371 120.999C58.0258 120.254 58.1755 119.345 58.4041 118.497C58.4416 118.36 58.481 118.226 58.5244 118.093C58.7519 117.362 59.1331 116.689 59.6418 116.121C60.2972 115.436 61.0628 114.869 61.9061 114.444C62.4382 114.161 62.9847 113.905 63.5457 113.675C63.6186 113.643 63.6915 113.615 63.7644 113.587C67.3066 112.193 71.153 111.782 74.9048 112.399C74.9777 112.409 75.0486 112.423 75.1215 112.435C75.2693 112.461 75.2023 112.688 75.0545 112.662Z" fill="white"/>
<path d="M63.5783 113.782C63.3458 113.069 63.3715 112.295 63.6509 111.599C63.9302 110.903 64.445 110.33 65.1033 109.983C65.2367 109.913 65.3502 110.12 65.2166 110.19C64.6031 110.512 64.1236 111.046 63.8648 111.694C63.606 112.343 63.5849 113.064 63.8053 113.726C63.853 113.871 63.6258 113.925 63.5784 113.782H63.5783Z" fill="white"/>
<path d="M58.7223 118.014C60.0715 118.717 61.6332 118.88 63.096 118.47C63.2409 118.429 63.2957 118.659 63.151 118.7C61.628 119.123 60.0032 118.95 58.6008 118.215C58.4672 118.145 58.5894 117.944 58.7223 118.014Z" fill="white"/>
<path d="M70.2236 112.318C70.2567 112.613 70.3617 112.895 70.5292 113.138C70.6967 113.382 70.9214 113.58 71.1832 113.714C71.3176 113.783 71.1952 113.984 71.0616 113.916C70.7731 113.766 70.5252 113.547 70.3396 113.279C70.1539 113.01 70.0362 112.699 69.9967 112.373C69.9904 112.343 69.9958 112.311 70.0118 112.285C70.0278 112.258 70.0531 112.239 70.0827 112.231C70.1127 112.224 70.1444 112.229 70.1708 112.245C70.1972 112.261 70.2162 112.287 70.2236 112.318V112.318Z" fill="white"/>
<path d="M63.4843 33.1509C63.5375 26.5502 63.8029 19.8858 64.2805 13.1575C64.2883 13.0239 64.2982 12.8924 64.3081 12.7588C64.5603 9.25611 64.869 5.74079 65.2343 2.21285V2.19292C65.2339 1.61143 65.0054 1.05385 64.599 0.642675C64.1925 0.231499 63.6413 0.000346998 63.0665 0H4.93121C4.35833 0.00113865 3.8091 0.231177 3.40309 0.640029C2.99708 1.04888 2.76719 1.60344 2.76345 2.18295C2.25895 7.04126 1.8635 11.8756 1.57709 16.6861C1.56527 16.8436 1.55739 16.9991 1.54951 17.1566C1.40762 19.5349 1.29463 21.9072 1.21055 24.2736C1.20464 24.4132 1.19872 24.5527 1.19675 24.6923C0.658717 39.2113 1.18238 53.7508 2.76345 68.1918C2.76759 68.771 2.99769 69.3251 3.40366 69.7335C3.80963 70.142 4.35864 70.3717 4.93121 70.3727H63.0665C63.6413 70.3724 64.1925 70.1412 64.599 69.73C65.0054 69.3189 65.2339 68.7613 65.2343 68.1798V68.1579C64.9485 65.5922 64.6976 63.0098 64.4815 60.4109C64.4499 60.0301 64.4191 59.6493 64.3889 59.2686C64.2391 57.3966 64.1084 55.5174 63.9967 53.6308C63.973 53.25 63.9514 52.8692 63.9317 52.4885C63.7208 48.7127 63.5828 44.9076 63.5178 41.0733C63.5099 40.6926 63.504 40.3138 63.4981 39.931C63.4745 38.0591 63.4672 36.1798 63.4764 34.2932C63.4764 33.9125 63.4784 33.5317 63.4843 33.1509Z" fill="#F2F2F2"/>
<path d="M81 14.9517C80.9996 14.3702 80.7711 13.8126 80.3647 13.4015C79.9582 12.9903 79.407 12.7591 78.8322 12.7588H20.6969C20.124 12.7599 19.5748 12.99 19.1688 13.3988C18.7627 13.8077 18.5328 14.3622 18.5291 14.9417C16.5663 33.8746 16.2411 52.4725 17.5556 70.3727C17.7152 72.5876 17.9018 74.7911 18.1153 76.9834C18.2296 78.1576 18.3511 79.3285 18.4798 80.496C18.4956 80.6475 18.5114 80.7991 18.5291 80.9506C18.5333 81.5298 18.7633 82.0839 19.1693 82.4923C19.5753 82.9008 20.1243 83.1305 20.6969 83.1315H78.8322C79.407 83.1312 79.9582 82.9 80.3647 82.4888C80.7711 82.0777 80.9996 81.5201 81 80.9386V80.9167C78.6489 59.8308 78.6489 37.6444 81 14.9716V14.9517Z" fill="white"/>
<path d="M81 14.9517C80.9996 14.3702 80.7711 13.8126 80.3647 13.4015C79.9582 12.9903 79.407 12.7591 78.8322 12.7588H20.6969C20.124 12.7599 19.5748 12.99 19.1688 13.3988C18.7627 13.8077 18.5328 14.3622 18.5291 14.9417C16.5663 33.8746 16.2411 52.4725 17.5556 70.3727C17.7152 72.5876 17.9018 74.7911 18.1153 76.9834C18.2296 78.1576 18.3511 79.3285 18.4798 80.496C18.4956 80.6475 18.5114 80.7991 18.5291 80.9506C18.5333 81.5298 18.7633 82.0839 19.1693 82.4923C19.5753 82.9008 20.1243 83.1305 20.6969 83.1315H78.8322C79.407 83.1312 79.9582 82.9 80.3647 82.4888C80.7711 82.0777 80.9996 81.5201 81 80.9386V80.9167C78.6489 59.8308 78.6489 37.6444 81 14.9716V14.9517ZM80.6058 80.9506C80.6023 81.4242 80.414 81.8773 80.0818 82.2111C79.7496 82.5449 79.3004 82.7324 78.8322 82.7328H20.6969C20.2267 82.7321 19.776 82.5428 19.4435 82.2065C19.111 81.8702 18.924 81.4142 18.9233 80.9386V80.9167C18.9095 80.7891 18.8957 80.6595 18.8819 80.5319C18.7459 79.3119 18.6191 78.0885 18.5015 76.8618C18.2946 74.7107 18.1113 72.5477 17.9517 70.3727C16.6373 52.4825 16.9604 33.8965 18.9233 14.9716V14.9517C18.924 14.4761 19.111 14.0201 19.4435 13.6838C19.776 13.3475 20.2267 13.1582 20.6969 13.1575H78.8322C79.3008 13.1577 79.7504 13.3454 80.0827 13.6797C80.415 14.014 80.6031 14.4677 80.6058 14.9417C78.2548 37.6325 78.2548 59.8427 80.6058 80.9506Z" fill="#E4E4E4"/>
<path opacity="0.2" d="M24.704 33.1509C24.5544 33.1513 24.4112 33.2117 24.3055 33.3188C24.1999 33.4259 24.1406 33.571 24.1406 33.7223C24.1406 33.8736 24.1999 34.0187 24.3055 34.1258C24.4112 34.2329 24.5544 34.2933 24.704 34.2937H71.9476C72.0971 34.2933 72.2404 34.2329 72.346 34.1258C72.4516 34.0187 72.5109 33.8736 72.5109 33.7223C72.5109 33.571 72.4516 33.4259 72.346 33.3188C72.2404 33.2117 72.0971 33.1513 71.9476 33.1509H24.704Z" fill="#FF6961"/>
<path opacity="0.2" d="M24.704 36.5801C24.5543 36.5804 24.4109 36.6407 24.3052 36.7478C24.1995 36.855 24.1401 37.0001 24.1401 37.1515C24.1401 37.3029 24.1995 37.4481 24.3052 37.5552C24.4109 37.6623 24.5543 37.7226 24.704 37.7229H56.7759C56.9255 37.7226 57.0689 37.6623 57.1746 37.5552C57.2803 37.4481 57.3397 37.3029 57.3397 37.1515C57.3397 37.0001 57.2803 36.855 57.1746 36.7478C57.0689 36.6407 56.9255 36.5804 56.7759 36.5801H24.704Z" fill="#FF6961"/>
<path opacity="0.2" d="M24.704 39.9312C24.5543 39.9314 24.4109 39.9918 24.3052 40.0989C24.1995 40.206 24.1401 40.3512 24.1401 40.5026C24.1401 40.6539 24.1995 40.7991 24.3052 40.9063C24.4109 41.0134 24.5543 41.0737 24.704 41.074H71.9475C72.0972 41.0737 72.2406 41.0134 72.3463 40.9063C72.452 40.7991 72.5113 40.6539 72.5113 40.5026C72.5113 40.3512 72.452 40.206 72.3463 40.0989C72.2406 39.9918 72.0972 39.9314 71.9475 39.9312H24.704Z" fill="#FF6961"/>
<path opacity="0.2" d="M24.704 43.3599C24.5544 43.3603 24.4112 43.4206 24.3055 43.5278C24.1999 43.6349 24.1406 43.78 24.1406 43.9313C24.1406 44.0826 24.1999 44.2277 24.3055 44.3348C24.4112 44.4419 24.5544 44.5023 24.704 44.5027H56.7759C56.9255 44.5023 57.0688 44.4419 57.1744 44.3348C57.28 44.2277 57.3393 44.0826 57.3393 43.9313C57.3393 43.78 57.28 43.6349 57.1744 43.5278C57.0688 43.4206 56.9255 43.3603 56.7759 43.3599H24.704Z" fill="#FF6961"/>
<path opacity="0.2" d="M24.704 52.4883C24.5544 52.4887 24.4112 52.5491 24.3055 52.6562C24.1999 52.7633 24.1406 52.9084 24.1406 53.0597C24.1406 53.211 24.1999 53.3561 24.3055 53.4632C24.4112 53.5704 24.5544 53.6307 24.704 53.6311H71.9476C72.0971 53.6307 72.2404 53.5704 72.346 53.4632C72.4516 53.3561 72.5109 53.211 72.5109 53.0597C72.5109 52.9084 72.4516 52.7633 72.346 52.6562C72.2404 52.5491 72.0971 52.4887 71.9476 52.4883H24.704Z" fill="#FF6961"/>
<path opacity="0.2" d="M24.704 55.9175C24.5543 55.9178 24.4109 55.9781 24.3052 56.0852C24.1995 56.1924 24.1401 56.3375 24.1401 56.4889C24.1401 56.6403 24.1995 56.7854 24.3052 56.8926C24.4109 56.9997 24.5543 57.06 24.704 57.0603H56.7759C56.9255 57.06 57.0689 56.9997 57.1746 56.8926C57.2803 56.7854 57.3397 56.6403 57.3397 56.4889C57.3397 56.3375 57.2803 56.1924 57.1746 56.0852C57.0689 55.9781 56.9255 55.9178 56.7759 55.9175H24.704Z" fill="#FF6961"/>
<path opacity="0.2" d="M24.704 59.2686C24.5543 59.2688 24.4109 59.3292 24.3052 59.4363C24.1995 59.5434 24.1401 59.6886 24.1401 59.84C24.1401 59.9913 24.1995 60.1365 24.3052 60.2437C24.4109 60.3508 24.5543 60.4111 24.704 60.4114H71.9475C72.0972 60.4111 72.2406 60.3508 72.3463 60.2437C72.452 60.1365 72.5113 59.9913 72.5113 59.84C72.5113 59.6886 72.452 59.5434 72.3463 59.4363C72.2406 59.3292 72.0972 59.2688 71.9475 59.2686H24.704Z" fill="#FF6961"/>
<path opacity="0.2" d="M24.704 62.6978C24.5544 62.6982 24.4112 62.7585 24.3055 62.8656C24.1999 62.9728 24.1406 63.1179 24.1406 63.2692C24.1406 63.4204 24.1999 63.5656 24.3055 63.6727C24.4112 63.7798 24.5544 63.8402 24.704 63.8406H56.7759C56.9255 63.8402 57.0688 63.7798 57.1744 63.6727C57.28 63.5656 57.3393 63.4204 57.3393 63.2692C57.3393 63.1179 57.28 62.9728 57.1744 62.8656C57.0688 62.7585 56.9255 62.6982 56.7759 62.6978H24.704Z" fill="#FF6961"/>
<path d="M34.0521 26.056H25.0287C24.9118 26.0559 24.7998 26.0089 24.7172 25.9253C24.6345 25.8417 24.588 25.7283 24.5879 25.6101V24.1476C24.588 24.0294 24.6345 23.916 24.7172 23.8324C24.7998 23.7488 24.9118 23.7018 25.0287 23.7017H34.0521C34.169 23.7018 34.281 23.7488 34.3636 23.8324C34.4463 23.916 34.4928 24.0294 34.4929 24.1476V25.6101C34.4928 25.7283 34.4463 25.8417 34.3636 25.9253C34.281 26.0089 34.169 26.0559 34.0521 26.056Z" fill="#007AFF"/>
<path d="M65.3991 73.0991L62.6352 74.0231C62.1746 74.1771 61.7139 74.3311 61.2533 74.4851C60.8266 74.6272 60.365 74.7962 59.9083 74.7351C59.5926 74.6929 59.2328 74.5091 59.1344 74.1806C59.0414 73.8697 59.2387 73.5445 59.4776 73.3607C60.1372 72.8531 60.9711 73.3697 61.4385 73.8953C62.0101 74.5383 62.3336 75.3683 62.8697 76.0413C63.347 76.6448 63.9521 77.1323 64.6403 77.4678C66.0082 78.1212 67.6767 78.0517 68.8968 77.0996C70.3537 75.9627 70.5023 73.9923 70.51 72.2732C70.5074 72.1957 70.4751 72.1223 70.4199 72.0684C70.3648 72.0145 70.2911 71.9844 70.2144 71.9844C70.1378 71.9844 70.0641 72.0145 70.0089 72.0684C69.9538 72.1223 69.9215 72.1957 69.9188 72.2732C69.9118 73.8313 69.8242 75.7411 68.4199 76.716C67.0747 77.6499 65.3068 77.4022 64.0683 76.4072C63.3782 75.8527 62.9537 75.1297 62.5005 74.381C62.0582 73.6501 61.509 72.9416 60.6766 72.6574C60.3197 72.5262 59.9288 72.5237 59.5703 72.6503C59.2117 72.777 58.9073 73.025 58.7087 73.3525C58.6179 73.507 58.5608 73.6793 58.541 73.8579C58.5212 74.0365 58.5393 74.2174 58.594 74.3884C58.6487 74.5594 58.7388 74.7166 58.8583 74.8496C58.9778 74.9827 59.1239 75.0884 59.2869 75.1598C60.2521 75.6251 61.3563 75.0799 62.2857 74.7692L65.5563 73.6758C65.9159 73.5556 65.7619 72.9778 65.3991 73.0991L65.3991 73.0991Z" fill="#007AFF"/>
<path d="M57.2087 117.057L55.2705 117.703L51.8853 110.448L54.7457 109.495L57.2087 117.057Z" fill="#FDBAAC"/>
<path d="M58.5913 118.705L58.4593 118.3L58.1125 117.233L57.876 116.508L57.2296 116.723L57.0956 116.713L55.32 116.592L55.0835 116.576L54.7327 116.552L54.3701 116.526L53.3572 118.015H53.3552C52.9766 118.14 52.6262 118.339 52.3245 118.602C52.0227 118.865 51.7756 119.186 51.5974 119.546C51.5757 119.59 51.556 119.634 51.5363 119.678C51.4874 119.785 51.4459 119.895 51.4121 120.009C51.2588 120.497 51.2303 121.017 51.3294 121.52C51.3548 121.644 51.3871 121.767 51.4259 121.888L51.4318 121.908L51.4555 121.982L51.5974 121.934L52.8428 121.52L57.206 120.066L58.0711 119.777L58.3371 119.688H58.3391L58.8554 119.516L58.5913 118.705Z" fill="#2F2E41"/>
<path d="M38.8379 118.763L36.7974 118.763L35.8267 110.801L38.8383 110.801L38.8379 118.763Z" fill="#FDBAAC"/>
<path d="M35.5725 83.8599L34.6679 85.4428C34.6679 85.4428 33.674 85.7175 33.9988 88.9951C34.2282 91.3095 34.3026 101.672 34.8801 108.404C35.1205 111.206 35.448 113.379 35.91 114.081L36.1945 114.339L39.1637 114.626L39.2386 114.6L40.3289 106.809C40.5247 105.411 40.4954 103.99 40.2422 102.601V102.601L40.0451 100.408L42.779 89.3044C42.779 89.3044 45.563 96.4209 47.3366 103.199C47.7636 104.831 49.3853 105.868 50.0002 107.268C50.2062 107.737 50.4086 108.192 50.6061 108.628C51.9065 111.5 52.5584 113.591 53.0516 113.765H53.4458L55.8106 112.967L56.2758 111.784L52.6575 101.006L49.948 83.6034C44.7853 80.7952 39.9425 80.4828 35.5725 83.8599Z" fill="#2F2E41"/>
<path d="M50.3618 60.4108C50.1836 60.0136 49.974 59.6316 49.7352 59.2684C49.1891 58.4076 48.4304 57.706 47.5339 57.233L46.7575 57.0596L45.3662 56.7486L44.6331 55.9173L43.4309 54.5557H39.2925L38.7387 55.9173L38.2737 57.0596L38.0746 57.546L34.5313 59.3382C34.5293 59.3382 34.5293 59.3382 34.5274 59.3402C34.5747 59.6991 34.6213 60.0559 34.6673 60.4108C34.7678 61.1823 34.8624 61.9445 34.9511 62.6974C34.9964 63.0801 35.0398 63.4609 35.0811 63.8397C35.2132 65.0278 35.3268 66.1954 35.4221 67.3424C35.5068 68.367 35.5745 69.3771 35.625 70.3726C35.7483 72.6333 35.7575 74.899 35.6526 77.1606C35.6251 77.6929 36.1473 78.299 36.1059 78.8193C36.0369 79.6686 35.3886 80.4221 35.2743 81.2335C35.2033 81.7319 35.2349 82.2622 35.1107 82.7327C35.0762 82.8703 35.0245 83.0029 34.957 83.1274C34.957 83.1294 34.955 83.1294 34.955 83.1314C33.5361 85.6951 34.6496 84.471 34.5175 85.0472L34.5806 85.0631C34.6101 85.0711 34.7008 85.095 34.8466 85.1289C35.6802 85.3303 39.1171 82.0668 41.4248 82.0668C42.8102 82.0668 46.4776 84.3714 47.7054 84.5388C48.6769 84.6704 49.544 84.79 50.0603 84.3295C50.2102 84.1952 50.3246 84.0253 50.3934 83.8351L50.3993 83.8172L50.3973 83.7992L50.3481 83.1314L50.3185 82.7327L49.8968 77.0111C49.6613 76.7157 49.5124 76.3594 49.4671 75.9827C49.4218 75.6059 49.4819 75.2239 49.6406 74.88L49.7273 74.6946L49.408 70.3726L49.3489 69.5652L49.3272 69.2921V69.2901L49.1735 67.2028L49.544 66.0625V66.0605L50.2653 63.8397L50.6358 62.6974L50.8683 61.9797L50.8841 61.9318C50.76 61.4086 50.5851 60.8991 50.3618 60.4108V60.4108Z" fill="#007AFF"/>
<path d="M53.9567 81.0263L49.9839 70.6394L48.1387 66.8467L51.6869 64.8638L54.5446 69.9572L56.4602 80.599C56.7617 80.8073 56.9948 81.102 57.1295 81.4452C57.2643 81.7885 57.2944 82.1647 57.2162 82.5255C57.138 82.8862 56.9549 83.2151 56.6905 83.4698C56.4261 83.7245 56.0925 83.8934 55.7325 83.9549C55.3725 84.0163 55.0025 83.9675 54.6702 83.8146C54.3378 83.6617 54.0582 83.4118 53.8673 83.097C53.6764 82.7821 53.5829 82.4168 53.5989 82.0478C53.6148 81.6788 53.7394 81.3231 53.9568 81.0263H53.9567Z" fill="#FDBAAC"/>
<path d="M54.037 66.7165L53.0201 66.0507L51.8515 63.8398L51.2485 62.6975L50.8681 61.9798L50.7065 61.6728L48.8797 60.4109L47.646 59.5576L46.641 60.4109L46.1621 60.8176L46.6311 62.6975L46.9149 63.8398L47.5337 66.3178L49.3487 69.5653L49.8 70.3727L50.0582 70.8372L50.0601 70.8412L50.0956 70.903L54.6814 70.7096L54.8253 70.7036L54.8331 70.3727L54.8371 70.2531C54.8391 70.1933 54.8391 70.1335 54.8391 70.0737C54.8384 68.9061 54.5635 67.7555 54.037 66.7165V66.7165Z" fill="#007AFF"/>
<path d="M19.3283 76.8957L27.4556 69.3828L30.2802 66.2676L33.3939 68.8933L29.7384 73.4347L20.6299 79.1007C20.5475 79.4605 20.3605 79.7871 20.0932 80.0387C19.8258 80.2902 19.4902 80.4551 19.1295 80.5122C18.7688 80.5693 18.3995 80.516 18.0689 80.3592C17.7384 80.2023 17.4617 79.9491 17.2746 79.632C17.0874 79.3149 16.9982 78.9484 17.0184 78.5796C17.0387 78.2108 17.1675 77.8566 17.3883 77.5625C17.6091 77.2683 17.9118 77.0476 18.2574 76.9288C18.6031 76.81 18.976 76.7985 19.3283 76.8957H19.3283Z" fill="#FDBAAC"/>
<path d="M36.1055 63.8399L36.0898 62.6976L36.0602 60.411L36.0484 59.5238L36.0149 59.4999C35.8313 59.3781 35.6234 59.2992 35.4059 59.2687C35.2148 59.2366 35.0197 59.2366 34.8285 59.2687C34.7278 59.2845 34.6283 59.3078 34.531 59.3384C34.529 59.3384 34.529 59.3384 34.527 59.3404C33.9429 59.5526 33.427 59.9221 33.0352 60.409L33.0332 60.411C32.4423 61.1221 31.9184 61.8877 31.4685 62.6976C31.2458 63.0804 31.033 63.4671 30.8339 63.8399C30.0811 65.2573 29.5392 66.4854 29.5293 66.5073L27.2788 69.4638L27.3103 69.5176L27.805 70.3728L29.618 73.5087L29.9057 74.0071L30.6408 73.6104C31.4977 73.1479 32.1733 72.404 32.5563 71.5012L32.8184 70.4885L32.915 70.3728L35.4217 67.3426L36.139 66.4734L36.1055 63.8399Z" fill="#007AFF"/>
<path d="M44.6948 50.6542C45.0304 48.562 43.6259 46.5908 41.5578 46.2513C39.4896 45.9117 37.541 47.3325 37.2053 49.4247C36.8697 51.5169 38.2742 53.4881 40.3424 53.8276C42.4105 54.1671 44.3592 52.7463 44.6948 50.6542Z" fill="#FDBAAC"/>
<path d="M37.2831 47.5237C37.1145 46.9267 36.7772 46.415 36.9459 46.415C37.1145 46.415 37.1988 45.9886 37.1988 45.9886C37.1988 45.9886 37.3674 45.9033 37.4517 45.9886C37.536 46.0739 37.6203 45.3916 37.6203 45.3916C37.6203 45.3916 37.7046 45.1358 37.7889 45.3063C37.8732 45.4769 37.8732 45.3916 37.9575 45.1358C38.0418 44.8799 38.4634 44.7093 38.4634 44.7093C38.4634 44.7093 40.0652 44.7946 40.3181 44.4535C40.571 44.1124 43.4373 44.3682 44.0275 44.7946C44.6176 45.221 46.9427 45.9834 45.5632 48.3756C46.3515 49.7711 45.1746 52.2601 44.8705 52.5554C44.3897 53.0224 44.0568 53.1908 41.7816 53.6487C41.3364 53.7384 40.2423 49.9705 40.2423 49.9705C40.2423 49.9705 37.4517 48.1207 37.2831 47.5237Z" fill="#2F2E41"/>
<path d="M38.9613 118.451L38.8391 118.402L36.6438 117.496L36.3068 117.359L34.884 118.451H34.882C34.0781 118.452 33.3074 118.776 32.7392 119.351C32.1709 119.926 31.8515 120.706 31.8511 121.519V121.619H39.6412V118.451H38.9613Z" fill="#2F2E41"/>
<path d="M61.8588 121.757C61.8589 121.788 61.853 121.819 61.8413 121.848C61.8295 121.877 61.8123 121.903 61.7905 121.926C61.7687 121.948 61.7429 121.965 61.7143 121.977C61.6858 121.99 61.6552 121.996 61.6243 121.996H21.5602C21.4977 121.996 21.4378 121.971 21.3937 121.926C21.3495 121.882 21.3247 121.821 21.3247 121.758C21.3247 121.695 21.3495 121.634 21.3937 121.589C21.4378 121.545 21.4977 121.52 21.5602 121.52H61.6243C61.6864 121.52 61.746 121.545 61.79 121.589C61.8339 121.634 61.8587 121.694 61.8588 121.757V121.757Z" fill="#CCCCCC"/>
<path d="M20.4957 0C20.1857 5.57539 18.1598 10.9131 14.7016 15.2658C11.2435 19.6184 6.52629 22.768 1.21057 24.2736C1.20466 24.4132 1.19875 24.5527 1.19678 24.6923C6.62262 23.1823 11.4426 19.9864 14.9761 15.5559C18.5096 11.1254 20.5782 5.68398 20.8899 0H20.4957Z" fill="white"/>
<path d="M14.4598 0C13.544 3.51998 11.9296 6.81458 9.71485 9.68322C7.50014 12.5519 4.73146 14.9345 1.57739 16.6861C1.56557 16.8436 1.55769 16.9991 1.5498 17.1566C4.81859 15.3797 7.68898 12.9384 9.98081 9.98598C12.2726 7.03357 13.9364 3.63377 14.8677 0H14.4598Z" fill="white"/>
</svg>
