<svg width="137" height="123" viewBox="0 0 137 123" fill="none" xmlns="http://www.w3.org/2000/svg">
<path d="M85.1207 71.4756H34.9391C33.2374 71.4737 31.6059 70.7996 30.4026 69.6013C29.1993 68.4029 28.5224 66.7782 28.5205 65.0835V6.39213C28.5224 4.69742 29.1993 3.07267 30.4026 1.87432C31.6059 0.675983 33.2374 0.00191434 34.9391 0H81.6248L91.5392 7.86985V65.0835C91.5373 66.7782 90.8604 68.4029 89.6571 69.6013C88.4538 70.7996 86.8224 71.4737 85.1207 71.4756Z" fill="#E6E6E6"/>
<path d="M34.939 1.84033C33.7271 1.84169 32.5653 2.32171 31.7084 3.17508C30.8515 4.02844 30.3695 5.18546 30.3682 6.3923V65.0836C30.3695 66.2905 30.8515 67.4475 31.7084 68.3009C32.5653 69.1542 33.7271 69.6343 34.939 69.6356H85.1205C86.3323 69.6343 87.4941 69.1542 88.351 68.3009C89.2079 67.4475 89.6899 66.2905 89.6913 65.0836V8.75653L80.9784 1.84033H34.939Z" fill="white"/>
<path opacity="0.2" d="M75.3602 18.9063H52.5132C52.3728 18.9063 52.2338 18.8787 52.1042 18.8252C51.9745 18.7717 51.8567 18.6933 51.7574 18.5945C51.6581 18.4956 51.5794 18.3783 51.5257 18.2492C51.472 18.12 51.4443 17.9816 51.4443 17.8418C51.4443 17.702 51.472 17.5636 51.5257 17.4345C51.5794 17.3053 51.6581 17.188 51.7574 17.0891C51.8567 16.9903 51.9745 16.9119 52.1042 16.8584C52.2338 16.8049 52.3728 16.7773 52.5132 16.7773H75.3602C75.5005 16.7773 75.6395 16.8049 75.7692 16.8584C75.8989 16.9119 76.0167 16.9903 76.116 17.0891C76.2152 17.188 76.2939 17.3053 76.3477 17.4345C76.4014 17.5636 76.429 17.702 76.429 17.8418C76.429 17.9816 76.4014 18.12 76.3477 18.2492C76.2939 18.3783 76.2152 18.4956 76.116 18.5945C76.0167 18.6933 75.8989 18.7717 75.7692 18.8252C75.6395 18.8787 75.5005 18.9063 75.3602 18.9063Z" fill="#FF6961"/>
<path opacity="0.2" d="M79.7692 22.4985H52.5132C52.2297 22.4985 51.9578 22.3864 51.7574 22.1868C51.5569 21.9872 51.4443 21.7164 51.4443 21.4341C51.4443 21.1518 51.5569 20.881 51.7574 20.6814C51.9578 20.4818 52.2297 20.3696 52.5132 20.3696H79.7692C80.0527 20.3696 80.3246 20.4818 80.525 20.6814C80.7255 20.881 80.8381 21.1518 80.8381 21.4341C80.8381 21.7164 80.7255 21.9872 80.525 22.1868C80.3246 22.3864 80.0527 22.4985 79.7692 22.4985Z" fill="#FF6961"/>
<path opacity="0.2" d="M75.3602 35.0059H52.5132C52.2297 35.0059 51.9578 34.8937 51.7574 34.6941C51.5569 34.4945 51.4443 34.2237 51.4443 33.9414C51.4443 33.6591 51.5569 33.3883 51.7574 33.1887C51.9578 32.9891 52.2297 32.877 52.5132 32.877H75.3602C75.6436 32.877 75.9155 32.9891 76.116 33.1887C76.3164 33.3883 76.429 33.6591 76.429 33.9414C76.429 34.2237 76.3164 34.4945 76.116 34.6941C75.9155 34.8937 75.6436 35.0059 75.3602 35.0059Z" fill="#FF6961"/>
<path opacity="0.2" d="M79.7692 38.5981H52.5132C52.2297 38.5981 51.9578 38.486 51.7574 38.2864C51.5569 38.0867 51.4443 37.816 51.4443 37.5337C51.4443 37.2514 51.5569 36.9806 51.7574 36.781C51.9578 36.5814 52.2297 36.4692 52.5132 36.4692H79.7692C80.0527 36.4692 80.3246 36.5814 80.525 36.781C80.7255 36.9806 80.8381 37.2514 80.8381 37.5337C80.8381 37.816 80.7255 38.0867 80.525 38.2864C80.3246 38.486 80.0527 38.5981 79.7692 38.5981Z" fill="#FF6961"/>
<path opacity="0.2" d="M75.3602 51.106H52.5132C52.2297 51.106 51.9578 50.9938 51.7574 50.7942C51.5569 50.5946 51.4443 50.3238 51.4443 50.0415C51.4443 49.7592 51.5569 49.4884 51.7574 49.2888C51.9578 49.0892 52.2297 48.9771 52.5132 48.9771H75.3602C75.6436 48.9771 75.9155 49.0892 76.116 49.2888C76.3164 49.4884 76.429 49.7592 76.429 50.0415C76.429 50.3238 76.3164 50.5946 76.116 50.7942C75.9155 50.9938 75.6436 51.106 75.3602 51.106Z" fill="#FF6961"/>
<path opacity="0.2" d="M79.7692 54.6988H52.5132C52.2297 54.6988 51.9578 54.5866 51.7574 54.387C51.5569 54.1873 51.4443 53.9166 51.4443 53.6343C51.4443 53.352 51.5569 53.0812 51.7574 52.8816C51.9578 52.682 52.2297 52.5698 52.5132 52.5698H79.7692C80.0527 52.5698 80.3246 52.682 80.525 52.8816C80.7255 53.0812 80.8381 53.352 80.8381 53.6343C80.8381 53.9166 80.7255 54.1873 80.525 54.387C80.3246 54.5866 80.0527 54.6988 79.7692 54.6988Z" fill="#FF6961"/>
<path d="M42.999 23.4C45.0855 23.4 46.7769 21.7156 46.7769 19.6378C46.7769 17.5599 45.0855 15.8755 42.999 15.8755C40.9126 15.8755 39.2212 17.5599 39.2212 19.6378C39.2212 21.7156 40.9126 23.4 42.999 23.4Z" fill="#FFA700"/>
<path d="M42.6248 21.0728C42.5398 21.073 42.4571 21.0456 42.3891 20.9948L42.3848 20.9916L41.497 20.3153C41.4141 20.2518 41.3598 20.1582 41.3462 20.0549C41.3325 19.9517 41.3606 19.8472 41.4242 19.7646C41.4878 19.6819 41.5818 19.6278 41.6855 19.6141C41.7892 19.6005 41.8941 19.6283 41.9771 19.6916L42.5522 20.1308L43.9111 18.3652C43.9426 18.3243 43.9819 18.2899 44.0268 18.2641C44.0716 18.2383 44.1211 18.2216 44.1725 18.2148C44.2238 18.2081 44.276 18.2114 44.326 18.2248C44.3761 18.2381 44.423 18.2611 44.4641 18.2925L44.4642 18.2926L44.4558 18.3042L44.4644 18.2926C44.5473 18.356 44.6016 18.4497 44.6153 18.5529C44.6289 18.6562 44.6009 18.7606 44.5374 18.8433L42.939 20.9191C42.902 20.9669 42.8544 21.0056 42.8 21.0322C42.7456 21.0588 42.6857 21.0725 42.6251 21.0723L42.6248 21.0728Z" fill="white"/>
<path opacity="0.2" d="M43.3882 39.5001C45.4747 39.5001 47.1661 37.8157 47.1661 35.7379C47.1661 33.66 45.4747 31.9756 43.3882 31.9756C41.3018 31.9756 39.6104 33.66 39.6104 35.7379C39.6104 37.8157 41.3018 39.5001 43.3882 39.5001Z" fill="#FF6961"/>
<path opacity="0.2" d="M42.999 55.6002C45.0855 55.6002 46.7769 53.9158 46.7769 51.838C46.7769 49.7601 45.0855 48.0757 42.999 48.0757C40.9126 48.0757 39.2212 49.7601 39.2212 51.838C39.2212 53.9158 40.9126 55.6002 42.999 55.6002Z" fill="#FF6961"/>
<path d="M91.3459 8.12333H83.5796C83.0127 8.12333 82.4689 7.89904 82.068 7.49979C81.6671 7.10054 81.4419 6.55904 81.4419 5.99442V0.281986C81.4419 0.256976 81.449 0.232471 81.4623 0.211284C81.4757 0.190097 81.4947 0.173084 81.5173 0.162197C81.5399 0.151309 81.5652 0.146987 81.5901 0.149727C81.6151 0.152467 81.6388 0.162157 81.6585 0.177687L91.4289 7.88598C91.4506 7.90313 91.4665 7.9266 91.4742 7.95313C91.482 7.97965 91.4812 8.00793 91.4721 8.03402C91.463 8.06011 91.446 8.08273 91.4233 8.09873C91.4007 8.11474 91.3737 8.12333 91.3459 8.12333Z" fill="#E6E6E6"/>
<path d="M38.7735 82.4727L9.08357 88.705C8.22556 88.8841 7.33126 88.7169 6.59686 88.2402C5.86245 87.7635 5.34792 87.0161 5.16615 86.162L0.0713966 62.0909C-0.108447 61.2365 0.0593938 60.3459 0.538097 59.6145C1.0168 58.8831 1.76727 58.3707 2.62486 58.1897L32.3148 51.9573C33.1728 51.7782 34.0671 51.9454 34.8015 52.4221C35.5359 52.8988 36.0505 53.6462 36.2322 54.5003L41.327 78.5714C41.5068 79.4258 41.339 80.3165 40.8603 81.0478C40.3816 81.7792 39.6311 82.2916 38.7735 82.4727Z" fill="white"/>
<path d="M38.7735 82.4727L9.08357 88.705C8.22556 88.8841 7.33126 88.7169 6.59686 88.2402C5.86245 87.7635 5.34792 87.0161 5.16615 86.162L0.0713966 62.0909C-0.108447 61.2365 0.0593938 60.3459 0.538097 59.6145C1.0168 58.8831 1.76727 58.3707 2.62486 58.1897L32.3148 51.9573C33.1728 51.7782 34.0671 51.9454 34.8015 52.4221C35.5359 52.8988 36.0505 53.6462 36.2322 54.5003L41.327 78.5714C41.5068 79.4258 41.339 80.3165 40.8603 81.0478C40.3816 81.7792 39.6311 82.2916 38.7735 82.4727ZM2.7051 58.5688C1.9484 58.7285 1.28622 59.1806 0.863838 59.8259C0.441453 60.4713 0.293355 61.2571 0.452035 62.0111L5.54679 86.0821C5.70718 86.8357 6.16118 87.4952 6.80918 87.9158C7.45719 88.3365 8.24627 88.484 9.00333 88.3259L38.6933 82.0936C39.45 81.9338 40.1122 81.4817 40.5345 80.8364C40.9569 80.1911 41.105 79.4052 40.9464 78.6513L35.8516 54.5802C35.6912 53.8266 35.2372 53.1672 34.5892 52.7465C33.9412 52.3259 33.1521 52.1784 32.3951 52.3364L2.7051 58.5688Z" fill="#3F3D56"/>
<path d="M30.47 59.8938L15.4858 63.0392C15.3547 63.0695 15.2169 63.0491 15.1003 62.9821C14.9837 62.9151 14.897 62.8065 14.8577 62.6783C14.8398 62.6115 14.8357 62.5416 14.8457 62.4731C14.8557 62.4047 14.8796 62.3389 14.916 62.2799C14.9524 62.2209 15.0004 62.17 15.0573 62.1301C15.1141 62.0902 15.1784 62.0623 15.2465 62.048L30.4994 58.8462C31.0949 59.1804 30.9067 59.8021 30.4698 59.8939L30.47 59.8938Z" fill="#CCCCCC"/>
<path d="M31.0242 62.5115L16.04 65.6569C15.9089 65.6872 15.7711 65.6668 15.6545 65.5998C15.5379 65.5328 15.4512 65.4242 15.4119 65.296C15.394 65.2291 15.3899 65.1593 15.3999 65.0908C15.4099 65.0223 15.4338 64.9566 15.4702 64.8976C15.5066 64.8386 15.5546 64.7876 15.6114 64.7478C15.6683 64.7079 15.7326 64.68 15.8007 64.6657L31.0536 61.4639C31.6491 61.7981 31.4609 62.4198 31.024 62.5115L31.0242 62.5115Z" fill="#CCCCCC"/>
<path d="M13.1161 67.8275L8.54305 68.7874C8.39371 68.8186 8.23804 68.7895 8.1102 68.7066C7.98237 68.6236 7.89281 68.4935 7.86118 68.3448L6.7237 62.9705C6.69237 62.8218 6.72158 62.6668 6.8049 62.5394C6.88823 62.4121 7.01887 62.323 7.16815 62.2915L11.7412 61.3315C11.8905 61.3004 12.0461 61.3295 12.174 61.4125C12.3018 61.4954 12.3914 61.6255 12.423 61.7741L13.5605 67.1484C13.5918 67.2972 13.5626 67.4522 13.4793 67.5795C13.396 67.7068 13.2653 67.796 13.1161 67.8275V67.8275Z" fill="#CCCCCC"/>
<path d="M32.1151 67.8797L9.24657 72.6801C9.11545 72.7104 8.97766 72.69 8.86107 72.623C8.74447 72.556 8.65776 72.4474 8.61847 72.3192C8.6005 72.2523 8.5964 72.1825 8.60642 72.114C8.61644 72.0455 8.64036 71.9798 8.67674 71.9208C8.71311 71.8618 8.76118 71.8108 8.81799 71.771C8.87481 71.7311 8.93919 71.7032 9.0072 71.6889L32.1447 66.832C32.7403 67.1663 32.552 67.788 32.1151 67.8797Z" fill="#CCCCCC"/>
<path d="M32.6693 70.4979L9.80077 75.2983C9.66965 75.3286 9.53186 75.3082 9.41527 75.2412C9.29867 75.1742 9.21196 75.0656 9.17267 74.9374C9.1547 74.8705 9.1506 74.8007 9.16062 74.7322C9.17064 74.6637 9.19456 74.598 9.23094 74.539C9.26731 74.48 9.31537 74.429 9.37219 74.3892C9.42901 74.3493 9.49339 74.3214 9.5614 74.3071L32.6989 69.4502C33.2945 69.7844 33.1062 70.4061 32.6693 70.4979Z" fill="#CCCCCC"/>
<path d="M33.223 73.115L10.3545 77.9155C10.2234 77.9458 10.0856 77.9254 9.96897 77.8584C9.85237 77.7914 9.76567 77.6828 9.72638 77.5546C9.70841 77.4877 9.70431 77.4179 9.71433 77.3494C9.72435 77.2809 9.74827 77.2152 9.78465 77.1562C9.82102 77.0972 9.86909 77.0462 9.9259 77.0063C9.98272 76.9665 10.0471 76.9385 10.1151 76.9243L33.2526 72.0674C33.8482 72.4016 33.6599 73.0233 33.223 73.115Z" fill="#CCCCCC"/>
<path d="M33.7772 75.7327L10.9087 80.5331C10.7776 80.5634 10.6398 80.543 10.5232 80.4761C10.4066 80.4091 10.3199 80.3005 10.2806 80.1723C10.2626 80.1054 10.2585 80.0356 10.2685 79.9671C10.2785 79.8986 10.3025 79.8328 10.3388 79.7739C10.3752 79.7149 10.4233 79.6639 10.4801 79.624C10.5369 79.5841 10.6013 79.5562 10.6693 79.5419L33.8068 74.6851C34.4024 75.0193 34.2141 75.641 33.7772 75.7327Z" fill="#CCCCCC"/>
<path d="M34.3309 78.3494L11.4624 83.1498C11.3313 83.1801 11.1935 83.1597 11.0769 83.0928C10.9603 83.0258 10.8736 82.9172 10.8343 82.789C10.8163 82.7221 10.8122 82.6523 10.8222 82.5838C10.8323 82.5153 10.8562 82.4495 10.8926 82.3906C10.9289 82.3316 10.977 82.2806 11.0338 82.2407C11.0906 82.2008 11.155 82.1729 11.223 82.1587L34.3605 77.3018C34.9561 77.636 34.7678 78.2577 34.3309 78.3494Z" fill="#CCCCCC"/>
<path d="M38.3675 66.3657C38.3156 66.4595 38.2711 66.5573 38.2346 66.6582L28.8726 68.9718L27.2439 67.2938L24.3799 69.4107L26.9732 72.6602C27.1827 72.9227 27.4721 73.1105 27.7979 73.1953C28.1236 73.2801 28.4683 73.2573 28.78 73.1305L38.9387 68.9965C39.2726 69.2413 39.6734 69.379 40.0878 69.3914C40.5022 69.4037 40.9106 69.2902 41.2587 69.0658C41.6067 68.8414 41.8779 68.5167 42.0361 68.1351C42.1944 67.7535 42.2322 67.3329 42.1446 66.9293C42.057 66.5257 41.8481 66.1583 41.5457 65.8758C41.2432 65.5934 40.8616 65.4093 40.4516 65.3481C40.0416 65.2869 39.6225 65.3515 39.2503 65.5333C38.878 65.7151 38.5701 66.0054 38.3675 66.3657L38.3675 66.3657Z" fill="#FFB8B8"/>
<path d="M6.4114 86.9547C6.70327 86.8649 6.97182 86.7125 7.19815 86.5082C7.42447 86.3039 7.60306 86.0527 7.72134 85.7722C7.83962 85.4917 7.89471 85.1888 7.88272 84.8848C7.87074 84.5808 7.79198 84.2832 7.65198 84.0128L14.0947 66.1793L9.62046 65.3896L4.69437 83.1677C4.25386 83.432 3.926 83.8481 3.77294 84.337C3.61987 84.826 3.65223 85.3539 3.86387 85.8207C4.07552 86.2875 4.45175 86.6607 4.92128 86.8697C5.3908 87.0787 5.921 87.109 6.4114 86.9547Z" fill="#FFB8B8"/>
<path d="M13.2766 69.3451L8.85899 67.6566C8.7333 67.6086 8.61948 67.5341 8.52529 67.4383C8.43109 67.3425 8.35874 67.2276 8.31316 67.1015C8.26757 66.9753 8.24982 66.8409 8.26112 66.7073C8.27241 66.5737 8.31249 66.4441 8.37862 66.3273L10.6961 62.2352C10.9466 61.5962 11.4413 61.0822 12.0718 60.8059C12.7022 60.5296 13.4169 60.5135 14.0593 60.7612C14.7016 61.0089 15.2191 61.5001 15.4983 62.1271C15.7776 62.7541 15.7958 63.4659 15.5489 64.1063L14.5267 68.6771C14.4974 68.808 14.4401 68.931 14.3588 69.0378C14.2774 69.1447 14.1739 69.2328 14.0553 69.2962C13.9366 69.3596 13.8057 69.3967 13.6713 69.4052C13.5369 69.4136 13.4023 69.3931 13.2766 69.3451V69.3451Z" fill="#007AFF"/>
<path d="M23.2479 120.437L25.6325 120.437L26.7669 111.277L23.2476 111.277L23.2479 120.437Z" fill="#FFB8B8"/>
<path d="M22.6396 119.661L27.3357 119.661H27.3359C27.7289 119.661 28.118 119.738 28.4811 119.888C28.8442 120.038 29.1741 120.257 29.452 120.534C29.7299 120.811 29.9504 121.139 30.1008 121.501C30.2512 121.863 30.3286 122.25 30.3286 122.641V122.738L22.6398 122.739L22.6396 119.661Z" fill="#1E2538"/>
<path d="M9.82705 120.437L12.2116 120.437L13.346 111.277L9.82666 111.277L9.82705 120.437Z" fill="#FFB8B8"/>
<path d="M9.21875 119.661L13.9148 119.661H13.915C14.308 119.661 14.6971 119.738 15.0602 119.888C15.4233 120.038 15.7532 120.257 16.0311 120.534C16.309 120.811 16.5295 121.139 16.6799 121.501C16.8303 121.863 16.9077 122.25 16.9077 122.641V122.738L9.2189 122.739L9.21875 119.661Z" fill="#1E2538"/>
<path d="M12.327 116.75H9.30933C9.19089 116.75 9.07369 116.726 8.96481 116.68C8.85594 116.633 8.75766 116.565 8.67592 116.48C8.59419 116.395 8.5307 116.294 8.4893 116.183C8.4479 116.072 8.42945 115.955 8.43507 115.837L9.86843 85.1679L9.95875 85.1654L24.5307 84.7871L27.3822 115.474C27.3932 115.589 27.381 115.705 27.3466 115.815C27.3121 115.926 27.2559 116.028 27.1813 116.116C27.1067 116.205 27.0152 116.278 26.9121 116.331C26.809 116.384 26.6963 116.416 26.5807 116.425L23.1912 116.695C22.9783 116.712 22.7665 116.651 22.5957 116.523C22.425 116.395 22.307 116.21 22.264 116.001L17.9285 94.1563C17.9167 94.0899 17.8813 94.0299 17.8289 93.9873C17.7765 93.9447 17.7104 93.9222 17.6428 93.924H17.6416C17.5737 93.9225 17.5075 93.9453 17.4552 93.9884C17.4028 94.0315 17.3677 94.0918 17.3564 94.1585L13.1857 116.047C13.1463 116.245 13.0391 116.423 12.8825 116.551C12.726 116.679 12.5297 116.75 12.327 116.75Z" fill="#1E2538"/>
<path d="M17.8548 57.8148C20.4932 57.8148 22.632 55.6848 22.632 53.0573C22.632 50.4298 20.4932 48.2998 17.8548 48.2998C15.2165 48.2998 13.0776 50.4298 13.0776 53.0573C13.0776 55.6848 15.2165 57.8148 17.8548 57.8148Z" fill="#FFB8B8"/>
<path d="M16.2527 88.7621C13.9758 88.7621 11.6372 88.166 9.69841 86.4038C9.59524 86.3106 9.51559 86.1946 9.46593 86.065C9.41627 85.9354 9.39799 85.796 9.4126 85.6581C9.62011 83.8013 10.6267 74.2141 10.0598 67.8098C9.94921 66.6136 10.1193 65.4082 10.5566 64.2886C10.9939 63.169 11.6865 62.166 12.5797 61.3587C13.4573 60.5532 14.5109 59.9618 15.6572 59.6313C16.8036 59.3007 18.0115 59.2399 19.1854 59.4538H19.1855C19.245 59.4644 19.3044 59.4756 19.364 59.4869C23.1886 60.2241 25.8459 63.7491 25.5453 67.6865C25.1065 73.4317 24.7132 81.2028 25.3308 85.5976C25.3564 85.7774 25.3248 85.9606 25.2406 86.1217C25.1564 86.2828 25.0237 86.4135 24.8611 86.4957C23.4558 87.2028 19.9351 88.7621 16.2527 88.7621Z" fill="#007AFF"/>
<path d="M22.4866 69.6871C22.3745 69.6129 22.2798 69.5154 22.209 69.4013C22.1382 69.2873 22.0929 69.1594 22.0763 69.0263L21.4943 64.3795C21.3095 63.7187 21.3954 63.0118 21.7332 62.414C22.0709 61.8161 22.6329 61.376 23.296 61.1902C23.959 61.0043 24.669 61.0879 25.2703 61.4226C25.8716 61.7573 26.3151 62.3157 26.5035 62.9755L28.4206 67.2682C28.4753 67.3907 28.5028 67.5235 28.5013 67.6576C28.4999 67.7916 28.4694 67.9238 28.412 68.0451C28.3546 68.1664 28.2716 68.2739 28.1687 68.3604C28.0658 68.4468 27.9454 68.5102 27.8157 68.5461L23.2571 69.8095C23.1274 69.8455 22.9914 69.8532 22.8584 69.8321C22.7254 69.811 22.5986 69.7615 22.4866 69.6871Z" fill="#007AFF"/>
<path d="M16.187 57.7475C15.7348 57.7559 15.2855 57.6749 14.8649 57.5093C14.6798 57.4383 14.4878 57.3799 14.303 57.3089C12.6718 56.6813 11.5973 54.9512 11.5588 53.2101C11.5203 51.469 12.4257 49.7791 13.7701 48.6654C15.1145 47.5517 16.8559 46.9799 18.5996 46.8477C20.4778 46.7053 22.5928 47.1796 23.6423 48.7374C23.9217 49.152 24.1171 49.6551 23.9515 50.1558C23.9019 50.3068 23.8134 50.4423 23.6947 50.5486C23.226 50.9639 22.7587 50.6516 22.2809 50.624C21.6242 50.5861 21.0343 51.1155 20.8223 51.7357C20.6103 52.3559 20.7036 53.0386 20.8748 53.6712C21.0052 54.0518 21.0874 54.4472 21.1195 54.8481C21.1334 55.0491 21.0954 55.2503 21.0092 55.4327C20.9231 55.615 20.7916 55.7724 20.6273 55.8899C20.2169 56.137 19.6779 55.994 19.2673 55.7474C18.8567 55.5007 18.5019 55.1578 18.0583 54.9763C17.6148 54.7948 17.0189 54.835 16.7607 55.2375C16.6787 55.3839 16.6231 55.5436 16.5967 55.7092C16.3652 56.7593 16.4184 56.6974 16.187 57.7475V57.7475Z" fill="#1E2538"/>
<path d="M37.2798 123H0.324385C0.2728 123 0.223327 122.98 0.186851 122.943C0.150375 122.907 0.129883 122.858 0.129883 122.806C0.129883 122.755 0.150375 122.706 0.186851 122.67C0.223327 122.633 0.2728 122.613 0.324385 122.613H37.2798C37.3314 122.613 37.3809 122.633 37.4173 122.67C37.4538 122.706 37.4743 122.755 37.4743 122.806C37.4743 122.858 37.4538 122.907 37.4173 122.943C37.3809 122.98 37.3314 123 37.2798 123Z" fill="#E6E6E6"/>
<path d="M131.875 83.0255L105.412 97.8082C104.646 98.2345 103.743 98.3411 102.899 98.1047C102.055 97.8683 101.34 97.3081 100.91 96.5472L88.8257 75.092C88.3976 74.3301 88.2906 73.4302 88.528 72.5898C88.7654 71.7494 89.3278 71.0371 90.0919 70.6091L116.555 55.8264C117.32 55.4001 118.224 55.2935 119.068 55.5299C119.912 55.7663 120.627 56.3264 121.057 57.0874L133.141 78.5426C133.569 79.3045 133.676 80.2044 133.439 81.0448C133.202 81.8852 132.639 82.5975 131.875 83.0255Z" fill="white"/>
<path d="M131.875 83.0255L105.412 97.8082C104.646 98.2345 103.743 98.3411 102.899 98.1047C102.055 97.8683 101.34 97.3081 100.91 96.5472L88.8257 75.092C88.3976 74.3301 88.2906 73.4302 88.528 72.5898C88.7654 71.7494 89.3278 71.0371 90.0919 70.6091L116.555 55.8264C117.32 55.4001 118.224 55.2935 119.068 55.5299C119.912 55.7663 120.627 56.3264 121.057 57.0874L133.141 78.5426C133.569 79.3045 133.676 80.2044 133.439 81.0448C133.202 81.8852 132.639 82.5975 131.875 83.0255ZM90.2822 70.947C89.608 71.3246 89.1117 71.9531 88.9023 72.6946C88.6928 73.4362 88.7873 74.2302 89.1649 74.9025L101.249 96.3577C101.629 97.0291 102.26 97.5233 103.004 97.7319C103.749 97.9405 104.546 97.8464 105.221 97.4703L131.685 82.6876C132.359 82.31 132.855 81.6815 133.065 80.9399C133.274 80.1984 133.18 79.4044 132.802 78.7321L120.718 57.2769C120.338 56.6055 119.707 56.1113 118.963 55.9027C118.218 55.6941 117.421 55.7881 116.746 56.1642L90.2822 70.947Z" fill="#3F3D56"/>
<path d="M117.176 63.9499L103.82 71.4106C103.704 71.4785 103.567 71.5 103.435 71.4708C103.304 71.4416 103.189 71.3638 103.113 71.2531C103.075 71.1946 103.051 71.1292 103.04 71.0609C103.029 70.9925 103.032 70.9227 103.049 70.8555C103.066 70.7884 103.096 70.7255 103.139 70.6705C103.181 70.6156 103.234 70.5697 103.295 70.5359L116.89 62.9414C117.559 63.0832 117.565 63.7325 117.176 63.95L117.176 63.9499Z" fill="#CCCCCC"/>
<path d="M118.49 66.2829L105.134 73.7436C105.018 73.8115 104.881 73.833 104.749 73.8038C104.618 73.7746 104.503 73.6968 104.427 73.5861C104.389 73.5276 104.365 73.4622 104.354 73.3939C104.343 73.3255 104.346 73.2557 104.363 73.1886C104.38 73.1214 104.41 73.0585 104.453 73.0035C104.495 72.9486 104.548 72.9028 104.609 72.8689L118.204 65.2744C118.872 65.4162 118.879 66.0655 118.49 66.283L118.49 66.2829Z" fill="#CCCCCC"/>
<path d="M102.995 76.6848L98.9192 78.9617C98.7861 79.0359 98.6288 79.0545 98.4819 79.0134C98.335 78.9722 98.2105 78.8747 98.1357 78.7423L95.4376 73.952C95.3631 73.8194 95.3445 73.6627 95.3858 73.5165C95.4271 73.3702 95.525 73.2462 95.658 73.1717L99.7341 70.8948C99.8673 70.8206 100.025 70.8021 100.171 70.8432C100.318 70.8844 100.443 70.9818 100.518 71.1143L103.216 75.9045C103.29 76.0372 103.309 76.1938 103.268 76.3401C103.226 76.4864 103.128 76.6104 102.995 76.6848L102.995 76.6848Z" fill="#CCCCCC"/>
<path d="M121.142 71.0818L100.759 82.4682C100.643 82.5361 100.505 82.5576 100.374 82.5284C100.242 82.4992 100.127 82.4214 100.051 82.3107C100.014 82.2522 99.9891 82.1868 99.9781 82.1185C99.9671 82.0501 99.9702 81.9803 99.9872 81.9132C100.004 81.846 100.035 81.7831 100.077 81.7281C100.119 81.6732 100.172 81.6273 100.233 81.5935L120.856 70.0732C121.525 70.215 121.532 70.8643 121.142 71.0818Z" fill="#CCCCCC"/>
<path d="M122.456 73.4153L102.073 84.8017C101.957 84.8696 101.819 84.8911 101.688 84.8619C101.556 84.8327 101.441 84.7548 101.365 84.6442C101.328 84.5857 101.303 84.5203 101.292 84.452C101.281 84.3836 101.284 84.3138 101.301 84.2466C101.318 84.1795 101.349 84.1166 101.391 84.0616C101.433 84.0067 101.486 83.9608 101.547 83.927L122.17 72.4067C122.839 72.5485 122.846 73.1978 122.456 73.4153V73.4153Z" fill="#CCCCCC"/>
<path d="M123.77 75.7474L103.387 87.1337C103.271 87.2017 103.133 87.2232 103.002 87.194C102.87 87.1647 102.755 87.0869 102.679 86.9762C102.642 86.9178 102.617 86.8524 102.606 86.784C102.595 86.7157 102.598 86.6458 102.615 86.5787C102.632 86.5116 102.663 86.4486 102.705 86.3937C102.747 86.3387 102.8 86.2929 102.861 86.259L123.484 74.7388C124.153 74.8805 124.16 75.5298 123.77 75.7474Z" fill="#CCCCCC"/>
<path d="M125.084 78.0809L104.701 89.4672C104.585 89.5352 104.447 89.5567 104.316 89.5275C104.184 89.4982 104.069 89.4204 103.993 89.3097C103.956 89.2513 103.931 89.1859 103.92 89.1175C103.909 89.0492 103.912 88.9793 103.929 88.9122C103.946 88.8451 103.977 88.7821 104.019 88.7272C104.061 88.6722 104.114 88.6264 104.175 88.5925L124.798 77.0723C125.467 77.214 125.474 77.8633 125.084 78.0809H125.084Z" fill="#CCCCCC"/>
<path d="M126.398 80.4134L106.015 91.7997C105.899 91.8677 105.761 91.8892 105.63 91.86C105.498 91.8307 105.383 91.7529 105.307 91.6422C105.27 91.5838 105.245 91.5184 105.234 91.45C105.223 91.3817 105.226 91.3118 105.243 91.2447C105.26 91.1776 105.291 91.1146 105.333 91.0597C105.375 91.0047 105.428 90.9589 105.489 90.925L126.112 79.4048C126.781 79.5465 126.788 80.1958 126.398 80.4134V80.4134Z" fill="#CCCCCC"/>
<path d="M122.842 89.1539C122.953 88.9101 123.009 88.645 123.006 88.3773C123.003 88.1096 122.941 87.8458 122.825 87.6045C122.708 87.3633 122.54 87.1503 122.332 86.9808C122.124 86.8112 121.881 86.6892 121.621 86.6232L121.066 80.1392L118.4 82.2336L119.336 88.0698C119.253 88.513 119.337 88.9709 119.571 89.3567C119.805 89.7425 120.173 90.0294 120.605 90.163C121.038 90.2966 121.504 90.2677 121.916 90.0817C122.329 89.8958 122.658 89.5656 122.842 89.1539Z" fill="#FFB8B8"/>
<path d="M121.116 85.9441L118.902 86.207C118.79 86.2204 118.676 86.2105 118.567 86.1779C118.459 86.1453 118.358 86.0908 118.272 86.0177C118.186 85.9446 118.115 85.8546 118.066 85.7533C118.016 85.6519 117.988 85.5415 117.983 85.4287L117.66 77.9902L113.463 66.5723C113.295 66.218 113.218 65.8275 113.24 65.4362C113.262 65.0449 113.381 64.6653 113.588 64.3317C113.691 64.1705 113.808 64.0192 113.939 63.8798C114.198 63.6028 114.519 63.3921 114.877 63.2656C115.235 63.1391 115.618 63.1006 115.994 63.1533C116.381 63.2046 116.75 63.3472 117.071 63.5692C117.392 63.7912 117.655 64.0862 117.838 64.4297L120.575 70.1413C121.72 72.5303 122.261 75.1619 122.15 77.8067L121.841 85.1649C121.833 85.3575 121.757 85.541 121.626 85.6833C121.496 85.8255 121.319 85.9174 121.127 85.9426L121.116 85.9441Z" fill="#007AFF"/>
<path d="M128.98 118.092L126.927 118.989L122.475 111.531L125.504 110.207L128.98 118.092Z" fill="#FFB8B8"/>
<path d="M130.376 119.845L123.757 122.738L123.721 122.655C123.572 122.318 123.492 121.955 123.484 121.587C123.476 121.219 123.541 120.854 123.676 120.511C123.81 120.168 124.01 119.855 124.266 119.589C124.522 119.324 124.828 119.111 125.166 118.963L125.166 118.963L129.209 117.196L130.376 119.845Z" fill="#1E2538"/>
<path d="M101.421 120.574H99.1788L98.1123 111.963L101.421 111.963L101.421 120.574Z" fill="#FFB8B8"/>
<path d="M101.992 122.738L94.7637 122.738V122.647C94.7637 122.279 94.8364 121.915 94.9778 121.575C95.1192 121.235 95.3265 120.926 95.5877 120.666C95.849 120.406 96.1592 120.199 96.5005 120.058C96.8419 119.918 97.2077 119.845 97.5772 119.845H97.5774L101.992 119.845L101.992 122.738Z" fill="#1E2538"/>
<path d="M123.247 117.63L110.759 89.8762C110.736 89.8241 110.698 89.7804 110.649 89.7509C110.601 89.7215 110.544 89.7078 110.487 89.7118C110.431 89.7158 110.377 89.7373 110.333 89.7733C110.289 89.8093 110.257 89.8579 110.242 89.9126L102.633 116.72C102.583 116.907 102.467 117.071 102.306 117.181C102.146 117.291 101.951 117.34 101.757 117.32L97.6015 116.906C97.3874 116.884 97.1904 116.779 97.0525 116.615C96.9146 116.45 96.8465 116.238 96.8627 116.025C98.1845 99.6524 100.268 84.2002 106.51 74.0846L106.544 74.0308L115.985 75.8746L128.591 115.849C128.653 116.055 128.632 116.277 128.532 116.468C128.432 116.658 128.261 116.802 128.056 116.869L124.254 118.086C124.06 118.149 123.848 118.137 123.662 118.053C123.475 117.968 123.327 117.818 123.247 117.63Z" fill="#1E2538"/>
<path d="M111.107 59.8677C113.587 59.8677 115.598 57.8652 115.598 55.395C115.598 52.9248 113.587 50.9224 111.107 50.9224C108.626 50.9224 106.616 52.9248 106.616 55.395C106.616 57.8652 108.626 59.8677 111.107 59.8677Z" fill="#FFB8B8"/>
<path d="M105.93 74.8591L105.872 74.8473L105.859 74.7908C105.254 72.2465 105.239 69.4697 105.816 66.5381C106.109 65.0397 106.923 63.6922 108.115 62.7328C109.307 61.7735 110.801 61.2639 112.333 61.2937C113.996 61.3273 115.583 61.9924 116.77 63.153C117.956 64.3135 118.653 65.8818 118.717 67.5368C118.909 72.5792 116.84 76.9508 116.819 76.9944L116.788 77.0584L105.93 74.8591Z" fill="#007AFF"/>
<path d="M93.8902 83.368C94.1561 83.3288 94.4102 83.2321 94.6345 83.0846C94.8588 82.9371 95.048 82.7424 95.1885 82.5142C95.3291 82.286 95.4178 82.0299 95.4482 81.7639C95.4787 81.498 95.4502 81.2285 95.3648 80.9747L100.538 76.9988L97.326 75.9014L92.906 79.8452C92.4873 80.0163 92.1462 80.3345 91.9474 80.7393C91.7485 81.1442 91.7056 81.6077 91.8269 82.0419C91.9482 82.4761 92.2253 82.851 92.6055 83.0954C92.9858 83.3398 93.4429 83.4368 93.8902 83.368V83.368Z" fill="#FFB8B8"/>
<path d="M96.7156 80.3699C96.5472 80.469 96.3487 80.5049 96.156 80.4711C95.9634 80.4372 95.7892 80.3359 95.665 80.1853L94.2439 78.4742C94.1717 78.3873 94.1183 78.2864 94.0871 78.178C94.0558 78.0696 94.0474 77.9559 94.0624 77.844C94.0773 77.7322 94.1152 77.6246 94.1738 77.5281C94.2325 77.4315 94.3105 77.3481 94.403 77.2829L100.507 72.9839L107.872 63.2864C108.08 62.9536 108.368 62.6779 108.71 62.4843C109.052 62.2906 109.437 62.1851 109.831 62.1773C110.023 62.1761 110.214 62.1927 110.403 62.2269C110.776 62.2931 111.128 62.4483 111.429 62.6793C111.73 62.9102 111.969 63.2101 112.129 63.5534C112.295 63.9054 112.375 64.2918 112.361 64.6805C112.347 65.0693 112.241 65.4492 112.05 65.7887L106.597 74.5841L106.585 74.6033L96.7156 80.3699Z" fill="#007AFF"/>
<path d="M111.91 55.1177C111.579 54.5754 110.848 54.4222 110.214 54.4841C109.58 54.5459 108.963 54.7679 108.326 54.763C106.557 54.7494 105.191 52.6018 105.935 51.0029C106.545 49.6917 108.069 49.116 109.447 48.6641C112.337 47.7166 115.656 46.8063 118.279 48.3425C119.115 48.8466 119.8 49.5636 120.264 50.4197C120.729 51.2758 120.955 52.2398 120.92 53.2122C120.861 54.4212 120.396 55.6631 120.789 56.8084C121.243 58.1298 122.681 58.8387 124.041 59.1816C126.423 59.7828 128.936 59.686 131.333 60.2252C133.731 60.7643 136.188 62.196 136.834 64.5578C137.259 66.1091 136.816 67.7791 136.082 69.2114C135.334 70.6728 134.294 71.9666 133.026 73.0136C131.757 74.0606 130.288 74.8388 128.707 75.3005C127.127 75.7622 125.468 75.8978 123.833 75.6988C122.198 75.4998 120.621 74.9705 119.198 74.1433C116.3 72.4577 114.207 69.609 112.96 66.5057C112.252 64.6955 111.754 62.8109 111.475 60.8885C111.196 59.0888 111.433 57.2702 111.939 55.5203C111.963 55.4549 111.973 55.3853 111.968 55.3159C111.963 55.2465 111.943 55.1789 111.91 55.1177Z" fill="#1E2538"/>
<path d="M128.112 123H91.1569C91.1053 123 91.0558 122.98 91.0194 122.943C90.9829 122.907 90.9624 122.858 90.9624 122.806C90.9624 122.755 90.9829 122.706 91.0194 122.67C91.0558 122.633 91.1053 122.613 91.1569 122.613H128.112C128.164 122.613 128.213 122.633 128.25 122.67C128.286 122.706 128.307 122.755 128.307 122.806C128.307 122.858 128.286 122.907 128.25 122.943C128.213 122.98 128.164 123 128.112 123Z" fill="#E6E6E6"/>
</svg>
