<svg width="149" height="81" viewBox="0 0 149 81" fill="none" xmlns="http://www.w3.org/2000/svg">
<g clip-path="url(#clip0)">
<path d="M58.0212 16.1089L51.565 24.0638L56.711 15.1947C55.9253 14.7143 55.0901 14.3191 54.2197 14.016C54.3931 12.2719 54.2036 10.511 53.6629 8.84292C53.1223 7.17488 52.2421 5.63548 51.0771 4.32066C49.9122 3.00584 48.4875 1.94378 46.8919 1.20066C45.2963 0.457542 43.5639 0.0492927 41.8027 0.00135711C40.0415 -0.0465785 38.2893 0.266827 36.6552 0.922039C35.0211 1.57725 33.5402 2.56023 32.3047 3.80972C31.0693 5.0592 30.1057 6.54842 29.4742 8.18455C28.8426 9.82069 28.5566 11.5687 28.6339 13.3196L40.2957 14.0827L28.839 15.1065C29.1619 16.8165 29.8324 18.443 30.8093 19.8862C31.7862 21.3294 33.0491 22.559 34.5205 23.4997L40.9046 19.3793L35.5953 24.1142C36.122 24.3839 36.6668 24.617 37.2258 24.8119C36.9444 27.6593 37.6332 30.5182 39.1815 32.9294C40.7298 35.3406 43.0478 37.1643 45.7632 38.1074C45.5469 40.2817 45.8954 42.4748 46.7753 44.4768C47.6552 46.4787 49.0371 48.2224 50.7886 49.5408C52.5401 50.8592 54.6025 51.7082 56.7784 52.0065C58.9543 52.3048 61.1707 52.0423 63.2154 51.2443C63.329 51.7442 63.5299 52.2203 63.8091 52.651C64.2066 53.2852 64.7673 53.8022 65.4333 54.1483C65.4761 54.8935 65.7105 55.6154 66.1141 56.2447C66.5178 56.874 67.0771 57.3897 67.7385 57.7423C67.7822 58.4871 68.0171 59.2085 68.4206 59.8374C68.8242 60.4663 69.383 60.9819 70.0438 61.335C70.0867 62.0803 70.3211 62.8021 70.7244 63.4316C71.1278 64.061 71.6867 64.577 72.3478 64.9303C72.3837 65.6766 72.6188 66.3998 73.0289 67.0258C74.0707 68.649 75.9266 69.324 77.1735 68.5369C78.4204 67.7498 78.5863 65.7879 77.5444 64.1634C77.1472 63.5292 76.5875 63.0115 75.9228 62.6636C75.8795 61.9175 75.6445 61.1949 75.2402 60.5649C74.8359 59.935 74.2759 59.4188 73.6137 59.0658C73.5701 58.3207 73.3352 57.5992 72.9314 56.9703C72.5276 56.3413 71.9684 55.8258 71.3072 55.473C71.2642 54.728 71.0296 54.0064 70.626 53.3773C70.2224 52.7483 69.6632 52.2328 69.0019 51.8803C68.9657 51.1339 68.7302 50.4106 68.3196 49.7848C68.0495 49.3574 67.7069 48.9798 67.3068 48.6691C68.9151 47.1679 70.1071 45.2796 70.7678 43.1865C71.4284 41.0934 71.5355 38.8662 71.0785 36.72C70.6215 34.5737 69.616 32.5809 68.1591 30.934C66.7021 29.287 64.8429 28.0416 62.7609 27.3179C62.9698 25.2051 62.6459 23.074 61.8186 21.1171C60.9913 19.1602 59.6866 17.4393 58.0225 16.1102L58.0212 16.1089Z" fill="#F2F2F2"/>
<path d="M84.5096 9.72325L83.3576 10.4499L84.0577 9.18427C83.86 9.02524 83.6144 8.93658 83.3602 8.93241H83.3425C83.2623 8.93353 83.1823 8.92763 83.1032 8.91478L82.712 9.16664L82.8804 8.86315C82.6037 8.76728 82.3645 8.58704 82.1968 8.3481L81.498 8.78885L81.9398 7.99046C81.7539 7.75179 81.5169 7.55723 81.2461 7.42089C80.9752 7.28455 80.6773 7.20983 80.3738 7.20215C79.6459 7.20215 78.999 7.63283 78.5813 8.30277C78.4571 8.50231 78.2821 8.66565 78.074 8.77623C77.8659 8.8868 77.6321 8.94069 77.3963 8.93241H77.3571C76.5545 8.93241 75.9038 9.83784 75.9038 10.9473C75.9038 12.0567 76.5545 12.9684 77.3571 12.9684C77.5336 12.9678 77.7074 12.9246 77.8635 12.8425C78.1366 12.7105 78.4353 12.6391 78.7389 12.6332C79.0425 12.6273 79.3438 12.6872 79.6219 12.8085C79.8572 12.9127 80.1118 12.9665 80.3694 12.9665C80.627 12.9665 80.8816 12.9127 81.1169 12.8085C81.393 12.6896 81.6915 12.6311 81.9923 12.6369C82.293 12.6428 82.589 12.7129 82.8601 12.8425C83.0162 12.9247 83.19 12.9679 83.3665 12.9684C84.1691 12.9684 84.8198 12.0643 84.8198 10.9473C84.821 10.5199 84.7144 10.099 84.5096 9.72325Z" fill="#F2F2F2"/>
<path opacity="0.03" d="M82.3388 12.6807C81.9198 12.602 81.4866 12.6489 81.0944 12.8155C80.8591 12.9197 80.6044 12.9735 80.3469 12.9735C80.0893 12.9735 79.8346 12.9197 79.5993 12.8155C79.3211 12.6941 79.0196 12.6343 78.7158 12.6401C78.412 12.646 78.113 12.7174 77.8397 12.8495C77.6838 12.9319 77.5099 12.9751 77.3333 12.9754C76.6193 12.9754 76.0269 12.2614 75.9028 11.3194C76.0448 11.2171 76.166 11.0889 76.2598 10.9416C76.6776 10.2717 77.3257 9.84229 78.0524 9.84229C78.779 9.84229 79.4183 10.2667 79.8361 10.9291C79.9607 11.1294 80.1353 11.2943 80.3429 11.4077C80.5506 11.5211 80.7841 11.5792 81.021 11.5763H81.04C81.6084 11.5675 82.0958 12.0209 82.3388 12.6807Z" fill="black"/>
<path d="M127.172 4.81163L126.02 5.53823L126.72 4.27265C126.522 4.11362 126.277 4.02496 126.022 4.02079H126.005C125.924 4.02191 125.844 4.01601 125.765 4.00316L125.374 4.25502L125.542 3.95153C125.266 3.85565 125.027 3.67542 124.859 3.43648L124.16 3.87723L124.602 3.07884C124.416 2.84017 124.179 2.64561 123.908 2.50927C123.637 2.37293 123.339 2.29821 123.036 2.29053C122.308 2.29053 121.661 2.7212 121.243 3.39115C121.119 3.59069 120.944 3.75403 120.736 3.8646C120.528 3.97518 120.294 4.02906 120.058 4.02079H120.019C119.217 4.02079 118.566 4.92622 118.566 6.03565C118.566 7.14509 119.217 8.05681 120.019 8.05681C120.196 8.0562 120.37 8.01299 120.526 7.93088C120.799 7.79887 121.097 7.72746 121.401 7.72159C121.705 7.71572 122.006 7.77553 122.284 7.89688C122.519 8.00108 122.774 8.05492 123.031 8.05492C123.289 8.05492 123.544 8.00108 123.779 7.89688C124.055 7.77796 124.354 7.71945 124.654 7.72531C124.955 7.73118 125.251 7.80129 125.522 7.93088C125.678 8.01304 125.852 8.05625 126.029 8.05681C126.831 8.05681 127.482 7.15264 127.482 6.03565C127.483 5.60826 127.376 5.18739 127.172 4.81163Z" fill="#F2F2F2"/>
<path opacity="0.03" d="M125 7.76959C124.581 7.69086 124.148 7.73776 123.756 7.90434C123.521 8.00853 123.266 8.06237 123.008 8.06237C122.751 8.06237 122.496 8.00853 122.261 7.90434C121.983 7.78296 121.681 7.72314 121.377 7.72901C121.074 7.73488 120.775 7.8063 120.501 7.93833C120.345 8.02077 120.172 8.06401 119.995 8.06426C119.281 8.06426 118.689 7.35025 118.564 6.4083C118.706 6.306 118.828 6.1778 118.921 6.03051C119.339 5.36057 119.987 4.93115 120.714 4.93115C121.441 4.93115 122.08 5.35553 122.498 6.01792C122.622 6.21828 122.797 6.38318 123.005 6.4966C123.212 6.61002 123.446 6.66809 123.683 6.66519H123.702C124.27 6.65638 124.757 7.10972 125 7.76959Z" fill="black"/>
<path d="M98.7225 16.6992L100.578 17.8728L99.4543 15.8391C99.773 15.5867 100.167 15.4471 100.575 15.4424H100.604C100.731 15.4443 100.858 15.435 100.984 15.4147L101.61 15.8101L101.338 15.324C101.782 15.1688 102.166 14.879 102.436 14.4954L103.558 15.2032L102.857 13.9199C103.514 13.1367 104.399 12.6606 105.372 12.6606C106.541 12.6606 107.58 13.3507 108.252 14.4237C108.451 14.7452 108.73 15.0089 109.064 15.1883C109.397 15.3676 109.772 15.4561 110.151 15.4449H110.215C111.503 15.4449 112.548 16.8982 112.548 18.6914C112.548 20.4846 111.503 21.9391 110.215 21.9391C109.931 21.938 109.652 21.8684 109.401 21.7364C108.962 21.5243 108.482 21.4097 107.995 21.4003C107.507 21.391 107.023 21.4871 106.576 21.6822C106.198 21.8504 105.788 21.9374 105.374 21.9374C104.959 21.9374 104.55 21.8504 104.171 21.6822C103.728 21.4911 103.248 21.3971 102.765 21.4064C102.282 21.4158 101.806 21.5283 101.371 21.7364C101.123 21.8649 100.847 21.9327 100.567 21.9341C99.277 21.9341 98.2326 20.4808 98.2326 18.6864C98.2257 17.9936 98.3942 17.3102 98.7225 16.6992Z" fill="#F2F2F2"/>
<path opacity="0.03" d="M102.21 21.456C102.884 21.3298 103.58 21.4052 104.21 21.6726C104.589 21.8409 104.998 21.9278 105.413 21.9278C105.827 21.9278 106.237 21.8409 106.615 21.6726C107.062 21.4776 107.546 21.3814 108.034 21.3907C108.522 21.4001 109.002 21.5147 109.441 21.7268C109.691 21.8589 109.97 21.9284 110.254 21.9295C111.399 21.9295 112.351 20.7823 112.55 19.2687C112.321 19.1022 112.127 18.8936 111.978 18.6541C111.306 17.5787 110.266 16.8911 109.098 16.8911C107.929 16.8911 106.904 17.5736 106.232 18.639C106.032 18.96 105.752 19.2242 105.419 19.4062C105.087 19.5882 104.713 19.6818 104.333 19.6779H104.304C103.385 19.6691 102.595 20.397 102.21 21.456Z" fill="black"/>
<path d="M74.5 81C115.645 81 149 79.816 149 78.3554C149 76.8949 115.645 75.7109 74.5 75.7109C33.3548 75.7109 0 76.8949 0 78.3554C0 79.816 33.3548 81 74.5 81Z" fill="#1E2538"/>
<path d="M124.704 19.6411H24.2955C22.8678 19.6411 21.7104 20.7924 21.7104 22.2126V74.4932C21.7104 75.9134 22.8678 77.0647 24.2955 77.0647H124.704C126.132 77.0647 127.289 75.9134 127.289 74.4932V22.2126C127.289 20.7924 126.132 19.6411 124.704 19.6411Z" fill="#F2F2F2"/>
<path d="M127.289 22.2126V23.6708H21.7104V22.2126C21.7104 21.5306 21.9828 20.8765 22.4676 20.3943C22.9524 19.912 23.6099 19.6411 24.2955 19.6411H124.704C125.39 19.6411 126.047 19.912 126.532 20.3943C127.017 20.8765 127.289 21.5306 127.289 22.2126Z" fill="#3F3D56"/>
<path d="M24.4324 22.4745C24.8519 22.4745 25.192 22.1362 25.192 21.719C25.192 21.3017 24.8519 20.9634 24.4324 20.9634C24.0129 20.9634 23.6729 21.3017 23.6729 21.719C23.6729 22.1362 24.0129 22.4745 24.4324 22.4745Z" fill="#007AFF"/>
<path d="M26.3313 22.4745C26.7508 22.4745 27.0909 22.1362 27.0909 21.719C27.0909 21.3017 26.7508 20.9634 26.3313 20.9634C25.9118 20.9634 25.5718 21.3017 25.5718 21.719C25.5718 22.1362 25.9118 22.4745 26.3313 22.4745Z" fill="#FFA700"/>
<path d="M28.2303 22.4745C28.6498 22.4745 28.9898 22.1362 28.9898 21.719C28.9898 21.3017 28.6498 20.9634 28.2303 20.9634C27.8108 20.9634 27.4707 21.3017 27.4707 21.719C27.4707 22.1362 27.8108 22.4745 28.2303 22.4745Z" fill="#FF6961"/>
<path d="M48.765 30.3447H38.9641C38.3146 30.3447 37.7881 30.8685 37.7881 31.5146V38.9973C37.7881 39.6434 38.3146 40.1672 38.9641 40.1672H48.765C49.4145 40.1672 49.941 39.6434 49.941 38.9973V31.5146C49.941 30.8685 49.4145 30.3447 48.765 30.3447Z" fill="white"/>
<path d="M62.9432 30.3447H53.1424C52.4928 30.3447 51.9663 30.8685 51.9663 31.5146V38.9973C51.9663 39.6434 52.4928 40.1672 53.1424 40.1672H62.9432C63.5927 40.1672 64.1192 39.6434 64.1192 38.9973V31.5146C64.1192 30.8685 63.5927 30.3447 62.9432 30.3447Z" fill="#007AFF"/>
<path d="M77.1219 30.3447H67.3211C66.6716 30.3447 66.145 30.8685 66.145 31.5146V38.9973C66.145 39.6434 66.6716 40.1672 67.3211 40.1672H77.1219C77.7714 40.1672 78.298 39.6434 78.298 38.9973V31.5146C78.298 30.8685 77.7714 30.3447 77.1219 30.3447Z" fill="white"/>
<path d="M91.3001 30.3447H81.4993C80.8498 30.3447 80.3232 30.8685 80.3232 31.5146V38.9973C80.3232 39.6434 80.8498 40.1672 81.4993 40.1672H91.3001C91.9496 40.1672 92.4762 39.6434 92.4762 38.9973V31.5146C92.4762 30.8685 91.9496 30.3447 91.3001 30.3447Z" fill="white"/>
<path d="M105.479 30.3447H95.678C95.0285 30.3447 94.502 30.8685 94.502 31.5146V38.9973C94.502 39.6434 95.0285 40.1672 95.678 40.1672H105.479C106.128 40.1672 106.655 39.6434 106.655 38.9973V31.5146C106.655 30.8685 106.128 30.3447 105.479 30.3447Z" fill="#007AFF"/>
<path d="M48.765 46.8418H38.9641C38.3146 46.8418 37.7881 47.3656 37.7881 48.0117V55.4943C37.7881 56.1405 38.3146 56.6642 38.9641 56.6642H48.765C49.4145 56.6642 49.941 56.1405 49.941 55.4943V48.0117C49.941 47.3656 49.4145 46.8418 48.765 46.8418Z" fill="white"/>
<path d="M62.9432 46.8418H53.1424C52.4928 46.8418 51.9663 47.3656 51.9663 48.0117V55.4943C51.9663 56.1405 52.4928 56.6642 53.1424 56.6642H62.9432C63.5927 56.6642 64.1192 56.1405 64.1192 55.4943V48.0117C64.1192 47.3656 63.5927 46.8418 62.9432 46.8418Z" fill="white"/>
<path d="M77.1219 46.8418H67.3211C66.6716 46.8418 66.145 47.3656 66.145 48.0117V55.4943C66.145 56.1405 66.6716 56.6642 67.3211 56.6642H77.1219C77.7714 56.6642 78.298 56.1405 78.298 55.4943V48.0117C78.298 47.3656 77.7714 46.8418 77.1219 46.8418Z" fill="#007AFF"/>
<path d="M91.3001 46.8418H81.4993C80.8498 46.8418 80.3232 47.3656 80.3232 48.0117V55.4943C80.3232 56.1405 80.8498 56.6642 81.4993 56.6642H91.3001C91.9496 56.6642 92.4762 56.1405 92.4762 55.4943V48.0117C92.4762 47.3656 91.9496 46.8418 91.3001 46.8418Z" fill="white"/>
<path d="M105.479 46.8418H95.678C95.0285 46.8418 94.502 47.3656 94.502 48.0117V55.4943C94.502 56.1405 95.0285 56.6642 95.678 56.6642H105.479C106.128 56.6642 106.655 56.1405 106.655 55.4943V48.0117C106.655 47.3656 106.128 46.8418 105.479 46.8418Z" fill="white"/>
<path d="M48.765 63.3384H38.9641C38.3146 63.3384 37.7881 63.8622 37.7881 64.5083V71.991C37.7881 72.6371 38.3146 73.1609 38.9641 73.1609H48.765C49.4145 73.1609 49.941 72.6371 49.941 71.991V64.5083C49.941 63.8622 49.4145 63.3384 48.765 63.3384Z" fill="white"/>
<path d="M62.9432 63.3384H53.1424C52.4928 63.3384 51.9663 63.8622 51.9663 64.5083V71.991C51.9663 72.6371 52.4928 73.1609 53.1424 73.1609H62.9432C63.5927 73.1609 64.1192 72.6371 64.1192 71.991V64.5083C64.1192 63.8622 63.5927 63.3384 62.9432 63.3384Z" fill="white"/>
<path d="M77.1219 63.3384H67.3211C66.6716 63.3384 66.145 63.8622 66.145 64.5083V71.991C66.145 72.6371 66.6716 73.1609 67.3211 73.1609H77.1219C77.7714 73.1609 78.298 72.6371 78.298 71.991V64.5083C78.298 63.8622 77.7714 63.3384 77.1219 63.3384Z" fill="white"/>
<path opacity="0.3" d="M91.3001 63.3384H81.4993C80.8498 63.3384 80.3232 63.8622 80.3232 64.5083V71.991C80.3232 72.6371 80.8498 73.1609 81.4993 73.1609H91.3001C91.9496 73.1609 92.4762 72.6371 92.4762 71.991V64.5083C92.4762 63.8622 91.9496 63.3384 91.3001 63.3384Z" fill="#007AFF"/>
<path d="M105.479 63.3384H95.678C95.0285 63.3384 94.502 63.8622 94.502 64.5083V71.991C94.502 72.6371 95.0285 73.1609 95.678 73.1609H105.479C106.128 73.1609 106.655 72.6371 106.655 71.991V64.5083C106.655 63.8622 106.128 63.3384 105.479 63.3384Z" fill="white"/>
<path d="M66.9325 28.5365L66.2919 27.8955C66.2603 27.8638 66.2228 27.8386 66.1814 27.8214C66.14 27.8043 66.0956 27.7954 66.0507 27.7954C66.0059 27.7954 65.9615 27.8043 65.9201 27.8214C65.8787 27.8386 65.8411 27.8638 65.8096 27.8955L61.789 31.861L60.0888 30.1559C60.0575 30.1245 60.0203 30.0995 59.9792 30.0825C59.9381 30.0655 59.8941 30.0567 59.8496 30.0567C59.8051 30.0567 59.761 30.0655 59.72 30.0825C59.6789 30.0995 59.6416 30.1245 59.6103 30.1559L58.9634 30.7919C58.8999 30.856 58.8643 30.9424 58.8643 31.0324C58.8643 31.1224 58.8999 31.2088 58.9634 31.2729L61.5447 33.8608C61.6091 33.924 61.696 33.9594 61.7865 33.9594C61.877 33.9594 61.9638 33.924 62.0282 33.8608L66.9325 29.0175C66.9645 28.9861 66.99 28.9487 67.0074 28.9074C67.0248 28.8661 67.0337 28.8218 67.0337 28.777C67.0337 28.7323 67.0248 28.6879 67.0074 28.6466C66.99 28.6053 66.9645 28.5679 66.9325 28.5365Z" fill="#3ACC6C"/>
<path d="M109.974 28.5365L109.333 27.8955C109.302 27.8638 109.264 27.8386 109.223 27.8214C109.182 27.8043 109.137 27.7954 109.092 27.7954C109.047 27.7954 109.003 27.8043 108.962 27.8214C108.92 27.8386 108.883 27.8638 108.851 27.8955L104.83 31.861L103.13 30.1559C103.099 30.1245 103.062 30.0995 103.021 30.0825C102.98 30.0655 102.936 30.0567 102.891 30.0567C102.847 30.0567 102.803 30.0655 102.761 30.0825C102.72 30.0995 102.683 30.1245 102.652 30.1559L102.005 30.7919C101.941 30.856 101.906 30.9424 101.906 31.0324C101.906 31.1224 101.941 31.2088 102.005 31.2729L104.586 33.8608C104.651 33.924 104.737 33.9594 104.828 33.9594C104.918 33.9594 105.005 33.924 105.07 33.8608L109.974 29.0175C110.006 28.9861 110.032 28.9487 110.049 28.9074C110.066 28.8661 110.075 28.8218 110.075 28.777C110.075 28.7323 110.066 28.6879 110.049 28.6466C110.032 28.6053 110.006 28.5679 109.974 28.5365Z" fill="#3ACC6C"/>
<path d="M81.1107 44.9076L80.4701 44.2666C80.4386 44.2349 80.401 44.2097 80.3596 44.1925C80.3182 44.1753 80.2738 44.1665 80.229 44.1665C80.1841 44.1665 80.1397 44.1753 80.0983 44.1925C80.0569 44.2097 80.0193 44.2349 79.9878 44.2666L75.9672 48.2321L74.2671 46.527C74.2358 46.4956 74.1985 46.4706 74.1574 46.4536C74.1164 46.4365 74.0723 46.4278 74.0278 46.4278C73.9833 46.4278 73.9393 46.4365 73.8982 46.4536C73.8571 46.4706 73.8199 46.4956 73.7885 46.527L73.1417 47.163C73.0781 47.2271 73.0425 47.3135 73.0425 47.4035C73.0425 47.4935 73.0781 47.5799 73.1417 47.644L75.7229 50.2319C75.7873 50.2951 75.8742 50.3305 75.9647 50.3305C76.0552 50.3305 76.142 50.2951 76.2065 50.2319L81.1107 45.3886C81.1428 45.3572 81.1682 45.3198 81.1856 45.2785C81.203 45.2372 81.212 45.1929 81.212 45.1481C81.212 45.1033 81.203 45.059 81.1856 45.0177C81.1682 44.9764 81.1428 44.939 81.1107 44.9076Z" fill="#3ACC6C"/>
<path d="M95.1625 62.0341L94.5219 61.3931C94.4903 61.3614 94.4528 61.3362 94.4114 61.319C94.37 61.3018 94.3256 61.293 94.2807 61.293C94.2359 61.293 94.1915 61.3018 94.1501 61.319C94.1087 61.3362 94.0711 61.3614 94.0396 61.3931L90.019 65.3586L88.3188 63.6535C88.2875 63.6221 88.2503 63.5971 88.2092 63.5801C88.1681 63.563 88.1241 63.5542 88.0796 63.5542C88.0351 63.5542 87.991 63.563 87.9499 63.5801C87.9089 63.5971 87.8716 63.6221 87.8403 63.6535L87.1934 64.2832C87.1299 64.3473 87.0942 64.4337 87.0942 64.5237C87.0942 64.6137 87.1299 64.7001 87.1934 64.7642L89.7746 67.3521C89.8391 67.4153 89.9259 67.4507 90.0164 67.4507C90.1069 67.4507 90.1938 67.4153 90.2582 67.3521L95.1625 62.5088C95.2253 62.4456 95.2606 62.3603 95.2606 62.2714C95.2606 62.1825 95.2253 62.0972 95.1625 62.0341Z" fill="#3ACC6C"/>
<path d="M128.163 77.8732C127.783 77.1793 128.214 76.328 128.706 75.7097C129.198 75.0914 129.796 74.4504 129.783 73.6584C129.764 72.525 128.555 71.855 127.589 71.2544C126.872 70.809 126.211 70.2802 125.62 69.679C125.372 69.4479 125.167 69.175 125.015 68.8731C124.815 68.4298 124.82 67.9261 124.832 67.4412C124.875 65.8243 124.956 64.2086 125.074 62.5942" stroke="#3F3D56" stroke-width="4" stroke-miterlimit="10"/>
<path d="M123.239 62.5062C123.252 62.2102 123.34 61.9223 123.495 61.6692C123.65 61.4161 123.867 61.2059 124.125 61.0581L124.522 61.8413L124.51 60.8931C124.7 60.8376 124.898 60.8138 125.096 60.8226C125.445 60.8396 125.782 60.9592 126.064 61.1665C126.345 61.3737 126.558 61.6593 126.677 61.987C126.795 62.3148 126.814 62.6701 126.729 63.0082C126.645 63.3463 126.462 63.6519 126.203 63.8865C125.944 64.1211 125.621 64.2742 125.275 64.3265C124.929 64.3788 124.575 64.3279 124.258 64.1802C123.941 64.0326 123.675 63.7948 123.493 63.4968C123.312 63.1989 123.223 62.8542 123.239 62.5062Z" fill="#57B894"/>
<path d="M126.403 74.4683C126.589 74.8277 126.894 75.1123 127.267 75.2747C127.639 75.437 128.056 75.4671 128.448 75.36C128.84 75.2528 129.183 75.0149 129.419 74.6861C129.656 74.3574 129.772 73.9577 129.747 73.5541C129.723 73.1505 129.56 72.7675 129.285 72.4693C129.011 72.1711 128.641 71.9759 128.239 71.9162C127.837 71.8566 127.427 71.9363 127.077 72.1418C126.727 72.3474 126.459 72.6664 126.317 73.0453L127.427 73.9432L126.206 73.6624C126.206 73.9429 126.274 74.2191 126.403 74.4683Z" fill="#57B894"/>
<path d="M127.289 71.0369C127.726 71.0594 128.155 70.9205 128.495 70.6469C128.835 70.3733 129.062 69.9844 129.131 69.5549C129.2 69.1254 129.107 68.6856 128.87 68.3202C128.633 67.9547 128.268 67.6893 127.846 67.5751L127.856 68.303L127.454 67.5109C127.221 67.4996 126.987 67.5341 126.768 67.6126C126.548 67.6911 126.346 67.812 126.174 67.9683C126.001 68.1246 125.861 68.3133 125.762 68.5235C125.663 68.7338 125.607 68.9614 125.596 69.1933C125.586 69.3972 125.612 69.6014 125.672 69.7965C125.78 70.1438 125.994 70.4495 126.283 70.6715C126.573 70.8936 126.924 71.0212 127.289 71.0369Z" fill="#57B894"/>
<path d="M122.97 68.1816C123.243 68.1916 123.514 68.1387 123.763 68.0273C124.012 67.9158 124.231 67.7486 124.404 67.5389C124.578 67.3291 124.7 67.0823 124.762 66.8179C124.823 66.5534 124.823 66.2784 124.76 66.0142C124.697 65.75 124.574 65.5038 124.4 65.2948C124.225 65.0857 124.005 64.9195 123.756 64.8091C123.506 64.6987 123.235 64.6471 122.962 64.6582C122.69 64.6694 122.423 64.743 122.184 64.8734L122.498 65.7297L121.852 65.1127C121.506 65.4279 121.3 65.8667 121.279 66.3329C121.27 66.4966 121.285 66.6607 121.323 66.8203C121.411 67.1948 121.619 67.5306 121.916 67.7763C122.214 68.0221 122.584 68.1644 122.97 68.1816Z" fill="#57B894"/>
<path opacity="0.1" d="M123.476 62.9769C123.886 63.0209 124.285 63.1481 124.697 63.1733C125.108 63.1985 125.56 63.1015 125.821 62.7829C125.96 62.6117 126.031 62.3951 126.149 62.2074C126.261 62.0331 126.415 61.8891 126.597 61.7881C126.704 62.011 126.763 62.2538 126.77 62.5008C126.776 62.7478 126.731 62.9935 126.636 63.2219C126.541 63.4503 126.399 63.6563 126.219 63.8266C126.039 63.9968 125.825 64.1276 125.591 64.2103C125.357 64.293 125.108 64.3258 124.86 64.3066C124.613 64.2875 124.372 64.2167 124.154 64.099C123.935 63.9813 123.744 63.8192 123.593 63.6233C123.441 63.4274 123.333 63.202 123.275 62.9618C123.342 62.9643 123.41 62.9693 123.476 62.9769Z" fill="black"/>
<path opacity="0.1" d="M122.97 68.1817C123.276 68.1971 123.581 68.1332 123.856 67.9961C124.13 67.8591 124.363 67.6536 124.534 67.3997C124.704 67.1459 124.805 66.8524 124.827 66.548C124.849 66.2436 124.792 65.9387 124.66 65.6631C124.519 65.7574 124.398 65.878 124.303 66.0182C124.176 66.2084 124.099 66.4287 123.951 66.6025C123.674 66.9262 123.202 67.0319 122.772 67.013C122.343 66.9941 121.929 66.872 121.506 66.833C121.447 66.833 121.387 66.8241 121.327 66.8229C121.415 67.1964 121.623 67.5311 121.919 67.7763C122.216 68.0215 122.585 68.1638 122.97 68.1817Z" fill="black"/>
<path opacity="0.1" d="M127.289 71.0367C127.593 71.052 127.895 70.9893 128.168 70.8548C128.44 70.7203 128.673 70.5184 128.844 70.2685C129.015 70.0186 129.119 69.7291 129.145 69.4279C129.171 69.1266 129.119 68.8237 128.993 68.5483C128.846 68.6441 128.717 68.7657 128.614 68.9072C128.476 69.1012 128.389 69.3241 128.234 69.5029C127.934 69.8353 127.43 69.9524 126.977 69.9424C126.523 69.9323 126.112 69.8252 125.675 69.7912C125.782 70.1391 125.995 70.4456 126.284 70.6685C126.573 70.8915 126.924 71.0201 127.289 71.0367Z" fill="black"/>
<path opacity="0.1" d="M126.403 74.4682C126.596 74.8956 126.951 75.2294 127.39 75.3964C127.83 75.5634 128.318 75.5498 128.748 75.3586C129.177 75.1674 129.513 74.8142 129.681 74.3768C129.849 73.9395 129.835 73.4537 129.643 73.0264C129.496 73.1214 129.364 73.2382 129.253 73.3727C129.083 73.5767 128.972 73.8096 128.777 74.0023C128.414 74.3574 127.827 74.506 127.305 74.5174C127.004 74.5188 126.703 74.5024 126.403 74.4682Z" fill="black"/>
<path d="M130.843 77.0734C130.843 77.0734 129.44 77.0306 129.017 76.7309C128.595 76.4312 126.865 76.0748 126.756 76.5546C126.648 77.0344 124.649 78.9473 126.231 78.9548C127.813 78.9624 129.91 78.703 130.333 78.4511C130.755 78.1992 130.843 77.0734 130.843 77.0734Z" fill="#656380"/>
<path opacity="0.2" d="M126.203 78.7888C127.787 78.8014 129.882 78.5432 130.304 78.2851C130.625 78.0899 130.753 77.3922 130.796 77.0698H130.843C130.843 77.0698 130.754 78.1956 130.336 78.4551C129.919 78.7145 127.819 78.9689 126.235 78.9588C125.778 78.9588 125.621 78.7938 125.63 78.5545C125.689 78.6956 125.863 78.7825 126.203 78.7888Z" fill="black"/>
<path d="M23.3296 77.2537C22.7739 76.2312 23.4043 74.9769 24.1284 74.0639C24.8525 73.1509 25.7362 72.2027 25.7184 71.0416C25.6906 69.3706 23.9082 68.3845 22.4827 67.498C21.4259 66.8408 20.4511 66.0613 19.5787 65.1759C19.2158 64.8341 18.9158 64.4318 18.6925 63.9871C18.3976 63.3335 18.4064 62.5905 18.4254 61.874C18.4862 59.4898 18.6043 57.1076 18.7799 54.7275" stroke="#3F3D56" stroke-width="4" stroke-miterlimit="10"/>
<path d="M16.0658 54.595C16.0853 54.1575 16.2154 53.7321 16.4439 53.3579C16.6725 52.9837 16.9922 52.6729 17.3736 52.4542L17.9609 53.6089L17.9432 52.2111C18.4761 52.055 19.0451 52.0714 19.568 52.258C20.0909 52.4445 20.5407 52.7915 20.8524 53.2489C21.1642 53.7063 21.3217 54.2503 21.3023 54.8026C21.283 55.3549 21.0877 55.8867 20.7446 56.3214C20.4016 56.756 19.9286 57.071 19.3939 57.2208C18.8592 57.3706 18.2904 57.3475 17.7698 57.1548C17.2491 56.9621 16.8035 56.6099 16.4972 56.1488C16.191 55.6878 16.0399 55.1419 16.0658 54.5899V54.595Z" fill="#60B158"/>
<path d="M20.7385 72.2343C21.0134 72.7659 21.4637 73.1873 22.0138 73.4278C22.5639 73.6683 23.1805 73.7133 23.76 73.5553C24.3396 73.3972 24.8469 73.0458 25.1968 72.5599C25.5468 72.0739 25.7181 71.4831 25.6821 70.8864C25.6461 70.2897 25.405 69.7235 24.9991 69.2826C24.5932 68.8418 24.0473 68.5533 23.4529 68.4654C22.8585 68.3774 22.2518 68.4955 21.7345 68.7997C21.2173 69.104 20.8209 69.5759 20.6119 70.1364L22.2475 71.4599L20.4448 71.0456C20.446 71.4594 20.5467 71.867 20.7385 72.2343Z" fill="#60B158"/>
<path d="M22.0321 67.1741C22.6744 67.203 23.3049 66.996 23.8037 66.5925C24.3026 66.189 24.6349 65.6172 24.7374 64.9858C24.84 64.3545 24.7056 63.7076 24.3599 63.1684C24.0142 62.6292 23.4813 62.2352 22.8625 62.0614L22.8765 63.1343L22.2827 61.9669H22.2764C21.9295 61.9455 21.5818 61.9929 21.2535 62.1063C20.9252 62.2198 20.6229 62.3971 20.3642 62.6279C20.1054 62.8587 19.8954 63.1384 19.7464 63.4508C19.5973 63.7631 19.5122 64.1018 19.496 64.4471C19.4798 64.7925 19.5328 65.1376 19.652 65.4623C19.7711 65.7871 19.954 66.085 20.1901 66.3388C20.4261 66.5926 20.7105 66.7971 21.0267 66.9405C21.343 67.0839 21.6847 67.1633 22.0321 67.1741Z" fill="#60B158"/>
<path d="M15.6723 62.9647C16.3663 62.9965 17.0447 62.753 17.5583 62.2876C18.072 61.8222 18.3789 61.173 18.4117 60.4826C18.4316 60.0563 18.3446 59.6318 18.1585 59.2473C18.0054 58.9237 17.7868 58.6351 17.5165 58.3993C17.2462 58.1635 16.93 57.9857 16.5876 57.8769C16.2451 57.768 15.8838 57.7306 15.5262 57.7668C15.1685 57.803 14.8222 57.9122 14.5089 58.0875L14.9709 59.3467L14.019 58.4375C13.6378 58.7853 13.3687 59.2375 13.2454 59.7372C13.1222 60.2368 13.1503 60.7616 13.3263 61.2453C13.5022 61.7291 13.8181 62.1503 14.2343 62.4558C14.6504 62.7613 15.1481 62.9375 15.6647 62.9622L15.6723 62.9647Z" fill="#60B158"/>
<path opacity="0.1" d="M16.4191 55.2888C17.0229 55.3555 17.6116 55.5406 18.218 55.5797C18.8243 55.6187 19.4915 55.4726 19.8751 55.0029C20.0814 54.7511 20.1852 54.4312 20.3599 54.1554C20.5255 53.8986 20.752 53.6863 21.0195 53.5371C21.1882 53.8675 21.2841 54.2299 21.3009 54.6001C21.3177 54.9703 21.255 55.3398 21.1169 55.684C20.9788 56.0282 20.7685 56.3391 20.5 56.5961C20.2316 56.853 19.9111 57.0501 19.5601 57.1741C19.209 57.2981 18.8354 57.3462 18.4642 57.3153C18.0929 57.2843 17.7326 57.175 17.4072 56.9945C17.0818 56.8141 16.7988 56.5667 16.5771 56.2689C16.3555 55.971 16.2001 55.6296 16.1216 55.2674C16.2203 55.2712 16.3203 55.2787 16.4191 55.2888Z" fill="black"/>
<path opacity="0.1" d="M15.6724 62.9645C16.3664 62.9963 17.0448 62.7527 17.5584 62.2873C18.0721 61.822 18.379 61.1728 18.4118 60.4824C18.4317 60.0561 18.3447 59.6316 18.1587 59.2471C17.9509 59.3864 17.7721 59.5643 17.632 59.7709C17.4459 60.0518 17.332 60.3754 17.113 60.6323C16.7054 61.1095 16.0078 61.2619 15.3761 61.2367C14.7444 61.2115 14.133 61.0302 13.5038 60.9723C13.4165 60.9647 13.3279 60.9584 13.2393 60.9559C13.3694 61.5087 13.6776 62.004 14.1168 62.3666C14.556 62.7292 15.1022 62.9391 15.6724 62.9645Z" fill="black"/>
<path opacity="0.1" d="M22.0324 67.1745C22.4795 67.1954 22.9247 67.1021 23.3252 66.9032C23.7258 66.7044 24.0684 66.4068 24.3204 66.0387C24.5725 65.6707 24.7255 65.2445 24.7648 64.8009C24.8042 64.3574 24.7286 63.9111 24.5453 63.5049C24.3298 63.6465 24.1423 63.8262 23.992 64.035C23.7882 64.3209 23.6616 64.6496 23.4224 64.9166C22.9806 65.4064 22.2375 65.5789 21.5678 65.5638C20.9196 65.5487 20.2943 65.3913 19.6499 65.3422C19.8096 65.8541 20.124 66.3047 20.5503 66.6325C20.9766 66.9604 21.4941 67.1496 22.0324 67.1745Z" fill="black"/>
<path opacity="0.1" d="M20.7383 72.2344C21.0452 72.827 21.5686 73.2802 22.2011 73.5007C22.8335 73.7212 23.5269 73.6923 24.1385 73.4199C24.7502 73.1475 25.2337 72.6524 25.4897 72.0363C25.7456 71.4201 25.7546 70.7299 25.5146 70.1074C25.2991 70.2466 25.105 70.4163 24.9386 70.6111C24.6854 70.9134 24.5259 71.2559 24.2373 71.538C23.7018 72.0606 22.8372 72.2759 22.0675 72.2936C21.6236 72.2999 21.1798 72.2801 20.7383 72.2344Z" fill="black"/>
<path d="M27.281 76.076C27.281 76.076 25.2137 76.0131 24.5896 75.5723C23.9655 75.1316 21.4096 74.6039 21.2551 75.3116C21.1007 76.0194 18.1473 78.8377 20.4816 78.8515C22.816 78.8654 25.9061 78.4901 26.5277 78.1123C27.1493 77.7345 27.281 76.076 27.281 76.076Z" fill="#656380"/>
<path opacity="0.2" d="M20.4447 78.6036C22.7791 78.6225 25.8693 78.2422 26.4908 77.8657C26.9643 77.5786 27.1542 76.5485 27.2162 76.0737H27.2858C27.2858 76.0737 27.1592 77.7322 26.5326 78.1087C25.906 78.4853 22.8209 78.8643 20.4865 78.8479C19.813 78.8479 19.5801 78.6036 19.5928 78.251C19.6852 78.4664 19.9384 78.5999 20.4447 78.6036Z" fill="black"/>
<path d="M109.03 70.9748C109.009 71.0276 108.995 71.0832 108.989 71.1398C108.788 72.4582 107.63 73.4317 107.207 74.6972C106.936 75.52 106.989 76.4144 107.356 77.1994C107.422 77.3094 107.462 77.4331 107.471 77.5608C107.471 77.6868 107.37 77.824 107.242 77.8127C106.936 77.7926 106.694 77.5609 106.438 77.3971C106.119 77.2011 105.841 76.9444 105.621 76.6416C105.512 76.4894 105.434 76.3172 105.392 76.135C105.351 75.9527 105.346 75.7641 105.379 75.58C105.531 74.8924 106.059 74.2792 106.223 73.5941L106.655 71.8173C106.714 71.4823 106.834 71.1609 107.009 70.869C107.077 70.7536 107.183 70.6647 107.308 70.6172C107.382 70.5993 107.458 70.5933 107.533 70.5995C108.033 70.6209 108.554 70.8073 109.03 70.9748Z" fill="#FFC1C7"/>
<path d="M107.256 76.9904C107.301 76.9804 107.349 76.9839 107.393 77.0004C107.451 77.0398 107.495 77.0962 107.519 77.1616C107.656 77.4135 107.863 77.6204 108.115 77.7573C108.218 77.8023 108.315 77.8571 108.407 77.921C108.452 77.9535 108.489 77.9967 108.513 78.0469C108.538 78.097 108.549 78.1524 108.547 78.2081C108.527 78.373 108.346 78.4599 108.186 78.5091C107.844 78.6086 107.485 78.6398 107.131 78.601C106.998 78.5933 106.868 78.5572 106.751 78.4952C106.636 78.416 106.536 78.316 106.458 78.2005C106.181 77.8191 105.867 77.4653 105.522 77.144C105.346 77.006 105.181 76.854 105.03 76.6894C104.955 76.6066 104.898 76.5092 104.863 76.4035C104.827 76.2978 104.814 76.1859 104.824 76.0749C104.873 75.7474 105.185 75.5334 105.381 75.2651C105.696 75.6681 106.014 76.0774 106.206 76.5509C106.27 76.7412 106.348 76.9261 106.442 77.1037C106.532 77.251 106.661 77.421 106.822 77.3253C106.982 77.2296 107.022 77.0307 107.256 76.9904Z" fill="#FF6584"/>
<path d="M111.061 61.3125C111.156 61.5491 111.195 61.8042 111.174 62.058L111.163 63.9381C111.17 64.3038 111.15 64.6695 111.104 65.0324C111.004 65.686 110.735 66.3043 110.617 66.9554C110.506 67.5661 110.527 68.2008 110.346 68.7952C110.065 69.7157 109.321 70.4448 109.059 71.3717C109.049 71.4278 109.023 71.4799 108.984 71.5215C108.953 71.546 108.917 71.5616 108.878 71.5669C108.668 71.5862 108.457 71.547 108.269 71.4535L106.908 70.9221C106.814 70.9624 106.75 70.8554 106.755 70.7521C106.771 70.6509 106.818 70.5571 106.89 70.4839C107.056 70.2735 107.202 70.0489 107.328 69.8127C107.708 69.0561 107.924 68.2284 107.961 67.3835C107.996 66.5433 107.971 65.7017 107.886 64.8649C107.84 64.2588 107.794 63.6535 107.747 63.0491C107.726 62.7607 107.709 62.4484 107.874 62.2079C108.038 61.9673 108.318 61.8678 108.588 61.7847C109.393 61.5385 110.222 61.3802 111.061 61.3125Z" fill="#3C354C"/>
<path opacity="0.1" d="M111.061 61.3125C111.156 61.5491 111.195 61.8042 111.174 62.058L111.163 63.9381C111.17 64.3038 111.15 64.6695 111.104 65.0324C111.004 65.686 110.735 66.3043 110.617 66.9554C110.506 67.5661 110.527 68.2008 110.346 68.7952C110.065 69.7157 109.321 70.4448 109.059 71.3717C109.049 71.4278 109.023 71.4799 108.984 71.5215C108.953 71.546 108.917 71.5616 108.878 71.5669C108.668 71.5862 108.457 71.547 108.269 71.4535L106.908 70.9221C106.814 70.9624 106.75 70.8554 106.755 70.7521C106.771 70.6509 106.818 70.5571 106.89 70.4839C107.056 70.2735 107.202 70.0489 107.328 69.8127C107.708 69.0561 107.924 68.2284 107.961 67.3835C107.996 66.5433 107.971 65.7017 107.886 64.8649C107.84 64.2588 107.794 63.6535 107.747 63.0491C107.726 62.7607 107.709 62.4484 107.874 62.2079C108.038 61.9673 108.318 61.8678 108.588 61.7847C109.393 61.5385 110.222 61.3802 111.061 61.3125Z" fill="black"/>
<path d="M114.041 64.161C113.854 64.431 113.701 64.7233 113.587 65.0312C113.517 65.2628 113.466 65.4994 113.434 65.7389C113.256 66.8509 113.078 67.9729 113.146 69.0962C113.036 69.1222 112.921 69.1217 112.811 69.0945C112.701 69.0673 112.599 69.0144 112.513 68.94C112.343 68.79 112.202 68.6092 112.099 68.4074C111.971 68.1893 111.857 67.963 111.759 67.7299C111.541 67.2065 111.432 66.6451 111.436 66.0789C111.432 66.0328 111.44 65.9866 111.459 65.9442C111.476 65.9142 111.499 65.8874 111.526 65.8648C112.269 65.1647 112.697 64.2038 113.106 63.2707C113.252 62.9657 113.366 62.6462 113.445 62.3174C113.512 61.985 113.517 61.6173 113.728 61.3515C113.918 61.1148 114.235 61.0153 114.531 60.9738C114.747 60.9358 114.968 60.9448 115.179 61.0002C115.41 61.0707 115.955 61.3389 115.987 61.6097C116.019 61.8804 115.532 62.2267 115.374 62.4068C114.888 62.9591 114.443 63.5453 114.041 64.161Z" fill="#FFC1C7"/>
<path d="M113.59 69.0859C113.752 69.3567 113.978 69.6589 113.863 69.9511C113.748 70.2432 113.326 70.3087 113.073 70.1286C113 70.0733 112.934 70.0099 112.876 69.9397C112.176 69.1633 111.541 68.332 110.977 67.4539C110.767 67.1277 110.561 66.7802 110.526 66.3948C110.519 66.352 110.526 66.3082 110.544 66.2689C110.569 66.2329 110.603 66.2041 110.642 66.1858C110.988 65.9912 111.356 65.8389 111.739 65.7324C111.73 66.1637 111.842 66.589 112.063 66.9602C112.224 67.2291 112.364 67.5104 112.481 67.8014C112.567 68.013 112.655 68.0294 112.877 68.0319C113.055 68.0319 113.183 68.0105 113.269 68.1906C113.406 68.4727 113.416 68.7963 113.59 69.0859Z" fill="#FF6584"/>
<path d="M108.845 58.1302C110.473 58.1553 112.098 58.2687 113.722 58.382L114.778 58.4563C115.089 58.4654 115.398 58.511 115.699 58.5923C115.985 58.6953 116.258 58.83 116.514 58.994C116.601 59.0383 116.679 59.1 116.742 59.1754C116.79 59.2521 116.823 59.3377 116.838 59.4272C116.898 59.615 116.918 59.8131 116.897 60.009C116.866 60.1492 116.814 60.2838 116.742 60.4082L116.002 61.8614C115.766 61.7846 115.582 61.631 115.35 61.5403C115.072 61.4467 114.781 61.3916 114.487 61.3766L113.717 61.3011C113.692 61.2549 113.684 61.2012 113.696 61.1499C113.02 61.3842 112.346 61.602 111.67 61.8362C110.43 62.2657 109.187 62.6963 107.992 63.2404C107.814 63.321 107.612 63.4053 107.431 63.3373C107.366 63.3097 107.306 63.2704 107.255 63.2215C106.959 62.9413 106.767 62.5698 106.71 62.1674C106.654 61.768 106.66 61.3624 106.728 60.9648C106.842 60.145 107.091 59.2875 107.722 58.7472C108.055 58.4538 108.404 58.1188 108.845 58.1302Z" fill="#3C354C"/>
<path opacity="0.1" d="M115.321 59.5454C114.957 59.7213 114.608 59.925 114.276 60.1549C114.226 60.1874 114.18 60.2249 114.138 60.267C114.107 60.302 114.079 60.339 114.053 60.3778C113.889 60.5888 113.768 60.8291 113.696 61.0856" stroke="black" stroke-miterlimit="10"/>
<path d="M98.5652 57.5823C98.3374 57.7725 98.2032 58.047 98.0424 58.2964C97.6563 58.9008 97.1018 59.3869 96.7208 59.9951C96.5575 60.2571 96.422 60.5467 96.1891 60.7507C95.9106 61.0026 95.5257 61.0895 95.1535 61.1184C94.8181 61.1424 94.4636 61.126 94.1674 61.2859C93.9142 61.4244 93.737 61.675 93.5749 61.9156V61.9231C93.5412 61.9735 93.5244 62.0332 93.5271 62.0936C93.5298 62.1541 93.5518 62.2121 93.5899 62.2593C93.628 62.3065 93.6803 62.3403 93.739 62.356C93.7978 62.3716 93.86 62.3682 93.9167 62.3462C94.189 62.2415 94.4698 62.1601 94.756 62.1032C95.0088 62.0649 95.2584 62.0085 95.5029 61.9345C95.738 61.8409 95.9621 61.7223 96.1713 61.5806C96.3553 61.4715 96.5309 61.349 96.6967 61.2141C96.9005 61.0416 97.0765 60.8363 97.2689 60.6537C97.5509 60.4227 97.8468 60.2091 98.1551 60.014C98.9654 59.4494 99.6413 58.7148 100.135 57.8619C100.194 57.7783 100.226 57.6783 100.225 57.576C100.207 57.4821 100.163 57.3949 100.098 57.3242C99.8742 57.0408 99.6704 56.8091 99.359 57.0723C99.1134 57.2751 98.8057 57.3746 98.5652 57.5823Z" fill="#FFC1C7"/>
<path d="M104.934 51.4457C104.937 51.5263 104.965 51.604 105.015 51.6674C105.099 51.7517 105.237 51.7341 105.356 51.7266C105.518 51.7104 105.683 51.7296 105.837 51.7829C105.991 51.8361 106.132 51.9222 106.25 52.0351C106.466 52.2605 106.551 52.5791 106.602 52.8876C106.659 53.1441 106.651 53.4106 106.579 53.6633C106.459 53.9555 106.227 54.1883 105.934 54.3106C105.645 54.4312 105.338 54.506 105.026 54.5322C104.766 54.5776 104.5 54.5776 104.241 54.5322C103.933 54.4617 103.666 54.2804 103.389 54.128C103.195 54.036 103.007 53.9308 102.828 53.8132C102.647 53.6932 102.517 53.5112 102.462 53.3019C102.446 53.249 102.446 53.1926 102.463 53.1399C102.479 53.0872 102.511 53.0405 102.554 53.006C102.599 52.9851 102.647 52.9707 102.696 52.9632C102.799 52.9372 102.894 52.8845 102.969 52.8103C103.045 52.7362 103.1 52.6434 103.128 52.5413C103.213 52.2152 103.009 51.8865 102.989 51.5503C102.979 51.4528 102.999 51.3546 103.048 51.2694C103.122 51.1765 103.221 51.1066 103.333 51.0679L103.966 50.7859C104.157 50.6812 104.356 50.5932 104.562 50.5227C104.763 50.4711 104.777 50.6096 104.815 50.7745C104.862 51 104.904 51.2228 104.934 51.4457Z" fill="#FFC1C7"/>
<path opacity="0.1" d="M104.934 51.4457C104.937 51.5263 104.965 51.604 105.015 51.6674C105.099 51.7517 105.237 51.7341 105.356 51.7266C105.518 51.7104 105.683 51.7296 105.837 51.7829C105.991 51.8361 106.132 51.9222 106.25 52.0351C106.466 52.2605 106.551 52.5791 106.602 52.8876C106.659 53.1441 106.651 53.4106 106.579 53.6633C106.459 53.9555 106.227 54.1883 105.934 54.3106C105.645 54.4312 105.338 54.506 105.026 54.5322C104.766 54.5776 104.5 54.5776 104.241 54.5322C103.933 54.4617 103.666 54.2804 103.389 54.128C103.195 54.036 103.007 53.9308 102.828 53.8132C102.647 53.6932 102.517 53.5112 102.462 53.3019C102.446 53.249 102.446 53.1926 102.463 53.1399C102.479 53.0872 102.511 53.0405 102.554 53.006C102.599 52.9851 102.647 52.9707 102.696 52.9632C102.799 52.9372 102.894 52.8845 102.969 52.8103C103.045 52.7362 103.1 52.6434 103.128 52.5413C103.213 52.2152 103.009 51.8865 102.989 51.5503C102.979 51.4528 102.999 51.3546 103.048 51.2694C103.122 51.1765 103.221 51.1066 103.333 51.0679L103.966 50.7859C104.157 50.6812 104.356 50.5932 104.562 50.5227C104.763 50.4711 104.777 50.6096 104.815 50.7745C104.862 51 104.904 51.2228 104.934 51.4457Z" fill="black"/>
<path d="M103.287 51.9722C104.159 51.9722 104.866 51.2691 104.866 50.4019C104.866 49.5346 104.159 48.8315 103.287 48.8315C102.415 48.8315 101.708 49.5346 101.708 50.4019C101.708 51.2691 102.415 51.9722 103.287 51.9722Z" fill="#FFC1C7"/>
<path d="M105.122 51.8335C105.356 51.7282 105.607 51.6651 105.863 51.6471C105.992 51.6394 106.12 51.6597 106.239 51.7067C106.359 51.7537 106.466 51.8262 106.555 51.9191C106.703 52.0916 106.752 52.3246 106.87 52.5173C107.103 52.8951 107.557 53.0676 107.92 53.3257C108.006 53.3816 108.08 53.4535 108.138 53.5373C108.265 53.7287 108.231 53.9743 108.228 54.2009C108.24 54.762 108.401 55.31 108.693 55.7902C108.985 56.2685 109.32 56.7199 109.693 57.1389C109.781 57.2349 109.854 57.3431 109.911 57.46C109.999 57.6715 109.974 57.9272 110.105 58.1148C109.789 58.0756 109.467 58.119 109.173 58.2407C108.716 58.4284 108.694 59.0933 108.479 59.5365C108.081 60.3563 107.529 61.0905 107.004 61.836C106.866 62.0139 106.749 62.207 106.655 62.4115C106.561 62.2138 106.625 61.9783 106.614 61.7605C106.589 61.2731 106.305 60.8361 106.225 60.3551C106.198 60.1142 106.184 59.8721 106.184 59.6297C106.162 59.2627 106.082 58.9014 105.947 58.5593C105.79 58.1942 105.602 57.8432 105.385 57.5104C105.283 57.313 105.138 57.1408 104.961 57.0066C104.751 56.8706 104.461 56.8316 104.328 56.62C104.296 56.5464 104.253 56.4777 104.201 56.416C104.157 56.3829 104.107 56.3578 104.054 56.3417C103.796 56.2207 103.545 56.0827 103.305 55.9287C103.052 55.7914 102.764 55.6894 102.485 55.7511C101.966 56.3499 101.378 56.8858 100.734 57.3479C100.534 57.494 100.319 57.6438 100.22 57.8705C99.9046 57.7205 99.6221 57.5104 99.3881 57.2522C99.351 57.216 99.321 57.1733 99.2995 57.1263C99.235 56.9424 99.4261 56.7775 99.578 56.6616C100.147 56.2351 100.583 55.6576 100.836 54.9956C101 54.5687 101.107 54.0775 101.479 53.8093C101.597 53.742 101.709 53.664 101.812 53.5763C101.904 53.4502 101.989 53.319 102.066 53.1834C102.146 53.0795 102.256 53.0016 102.381 52.9595C102.506 52.9173 102.641 52.9129 102.768 52.9467C102.913 53.0029 103.053 53.0699 103.187 53.1469C103.538 53.3043 103.94 53.2729 104.327 53.23L105.809 53.0802C105.833 52.9978 105.836 52.9106 105.817 52.8268C105.798 52.7431 105.758 52.6656 105.7 52.6017C105.639 52.5446 105.574 52.4928 105.504 52.4468C105.31 52.2918 105.175 52.0753 105.122 51.8335Z" fill="#FF6584"/>
<path d="M104.123 47.6879C104.302 47.7542 104.466 47.8573 104.602 47.9905C104.739 48.1237 104.846 48.2841 104.917 48.4611C104.961 48.6124 105.017 48.7601 105.084 48.9031C105.202 49.071 105.34 49.224 105.495 49.359C105.637 49.5088 105.758 49.704 105.725 49.9068C105.713 49.9823 105.68 50.0529 105.67 50.1271C105.625 50.4533 105.998 50.6775 106.112 50.986C106.26 51.3915 105.937 51.875 106.134 52.2579C106.209 52.4014 106.344 52.5097 106.429 52.6357C106.514 52.7616 106.523 52.9883 106.38 53.0651C106.157 53.1847 105.899 52.8346 105.662 52.9266C105.601 52.9505 105.555 53.0021 105.495 53.0286C105.329 53.1029 105.136 52.9568 105.081 52.7843C105.046 52.6067 105.05 52.4239 105.091 52.2478C105.111 52.1597 105.113 52.0683 105.095 51.9796C105.078 51.8909 105.042 51.8068 104.99 51.7327C104.894 51.6232 104.737 51.5804 104.637 51.4809C104.454 51.297 104.489 51.0011 104.51 50.7442C104.549 50.2254 104.456 49.6574 104.082 49.2922C104.074 49.2819 104.064 49.2732 104.053 49.267C104.041 49.2607 104.028 49.2568 104.015 49.2557C103.988 49.2606 103.964 49.2755 103.948 49.2973C103.778 49.4745 103.588 49.6313 103.381 49.7645C103.323 49.809 103.252 49.8345 103.178 49.8375C103.106 49.8375 103.034 49.7645 103.052 49.6952C102.873 49.7778 102.712 49.8951 102.578 50.0403C102.549 49.9718 102.536 49.8978 102.54 49.8237C102.471 49.9612 102.386 50.0905 102.287 50.209C102.186 50.3165 102.093 50.431 102.009 50.5515C101.967 50.6121 101.939 50.681 101.927 50.7534C101.914 50.8258 101.918 50.9001 101.938 50.9709C102.08 51.3751 102.802 51.2819 102.959 51.6811C102.994 51.7705 102.992 51.8687 103.028 51.9569C103.097 52.1282 103.281 52.2088 103.433 52.3221C103.585 52.4354 103.716 52.6281 103.625 52.788C103.546 52.9253 103.359 52.9404 103.205 52.9757C103.073 53.0082 102.949 53.067 102.84 53.1483C102.731 53.2297 102.64 53.332 102.572 53.4492C102.536 53.5352 102.48 53.6115 102.409 53.6721C102.345 53.7047 102.274 53.7219 102.202 53.7224C101.987 53.7401 101.74 53.7451 101.592 53.5965C101.393 53.3887 101.487 53.0109 101.285 52.8069C101.238 52.7616 101.18 52.7288 101.135 52.681C101.089 52.6217 101.055 52.5539 101.036 52.4814C101.017 52.4089 101.012 52.3334 101.023 52.2591C101.043 51.8398 101.198 51.4293 101.174 51.0099C101.137 50.7325 101.083 50.4575 101.014 50.1863C100.952 49.8699 100.96 49.5437 101.038 49.2308C101.116 48.9178 101.261 48.6255 101.464 48.3742C101.809 47.9725 102.258 47.8151 102.767 47.7446C103.22 47.6778 103.658 47.5204 104.123 47.6879Z" fill="#3C354C"/>
</g>
<defs>
<clipPath id="clip0">
<rect width="149" height="81" fill="white"/>
</clipPath>
</defs>
</svg>
