<svg width="701" height="970" viewBox="0 0 701 970" fill="none" xmlns="http://www.w3.org/2000/svg">
<mask id="mask0" mask-type="alpha" maskUnits="userSpaceOnUse" x="0" y="0" width="701" height="970">
<rect x="0.761719" width="700" height="970" fill="#1E2538"/>
</mask>
<g mask="url(#mask0)">
<path opacity="0.6" d="M741.279 968.896C741.279 943.536 736.286 918.424 726.584 894.994C716.882 871.564 702.661 850.275 684.734 832.342C666.807 814.409 645.525 800.185 622.102 790.48C598.68 780.774 573.575 775.779 548.223 775.779C522.871 775.779 497.766 780.774 474.344 790.48C450.921 800.185 429.639 814.409 411.712 832.342C393.785 850.275 379.564 871.564 369.863 894.994C360.161 918.424 355.167 943.536 355.167 968.897L548.223 968.896H741.279Z" fill="#212A3E"/>
<path opacity="0.2" d="M741.279 582.662C741.279 557.302 736.286 532.189 726.584 508.759C716.882 485.329 702.661 464.04 684.734 446.108C666.807 428.175 645.525 413.95 622.102 404.245C598.68 394.54 573.575 389.545 548.223 389.545C522.871 389.545 497.766 394.54 474.344 404.245C450.921 413.95 429.639 428.175 411.712 446.108C393.785 464.04 379.564 485.329 369.863 508.759C360.161 532.189 355.167 557.302 355.167 582.662L548.223 582.662H741.279Z" fill="#2E384D"/>
<path opacity="0.2" d="M741.28 389.545C741.28 364.184 736.286 339.072 726.584 315.642C716.882 292.212 702.662 270.923 684.735 252.99C666.808 235.058 645.526 220.833 622.103 211.128C598.68 201.423 573.576 196.428 548.224 196.428L548.224 389.545H741.28Z" fill="#2E384D"/>
<path opacity="0.3" d="M355.167 582.662C355.167 608.023 360.161 633.135 369.863 656.565C379.565 679.995 393.785 701.284 411.712 719.217C429.639 737.149 450.921 751.374 474.344 761.079C497.767 770.784 522.871 775.779 548.223 775.779C573.576 775.779 598.68 770.784 622.103 761.079C645.525 751.374 666.808 737.149 684.735 719.217C702.661 701.284 716.882 679.995 726.584 656.565C736.286 633.135 741.279 608.023 741.279 582.662L548.223 582.662L355.167 582.662Z" fill="#212A3E"/>
<path opacity="0.25" d="M4.35667 1.85069e-05C4.35667 25.3605 9.35021 50.4727 19.0522 73.9028C28.7542 97.3328 42.9746 118.622 60.9015 136.555C78.8284 154.487 100.111 168.712 123.533 178.417C146.956 188.122 172.06 193.117 197.413 193.117C222.765 193.117 247.869 188.122 271.292 178.417C294.715 168.712 315.997 154.487 333.924 136.554C351.851 118.622 366.071 97.3328 375.773 73.9027C385.475 50.4727 390.469 25.3605 390.469 -3.05176e-05L197.413 1.62405e-06L4.35667 1.85069e-05Z" fill="#303D57"/>
<path opacity="0.2" d="M352.464 587.573C352.464 612.289 347.597 636.762 338.142 659.597C328.687 682.431 314.828 703.179 297.357 720.655C279.886 738.132 259.145 751.995 236.318 761.453C213.491 770.911 189.025 775.779 164.317 775.779L164.317 587.573H352.464Z" fill="#2E384D"/>
<path opacity="0.6" d="M370.279 867.372C370.279 924.052 324.345 970 267.683 970C211.021 970 165.088 924.052 165.088 867.372C165.088 810.692 211.021 764.744 267.683 764.744C324.345 764.744 370.279 810.692 370.279 867.372Z" fill="#212A3E"/>
<path opacity="0.6" d="M548.288 300.957C548.288 357.806 502.218 403.891 445.387 403.891C388.556 403.891 342.485 357.806 342.485 300.957C342.485 244.108 388.556 198.022 445.387 198.022C502.218 198.022 548.288 244.108 548.288 300.957Z" fill="#212A3E"/>
<path opacity="0.2" d="M164.317 584.869C138.965 584.869 113.861 579.874 90.438 570.169C67.0154 560.464 45.7331 546.239 27.8061 528.306C9.87925 510.374 -4.34118 489.085 -14.0431 465.655C-23.7451 442.225 -28.7386 417.112 -28.7386 391.752L164.317 391.752L164.317 584.869Z" fill="#2E384D"/>
<path opacity="0.2" d="M164.317 389.545C138.965 389.545 113.861 384.55 90.438 374.845C67.0154 365.14 45.7331 350.915 27.8061 332.982C9.87925 315.05 -4.34118 293.761 -14.0431 270.33C-23.7451 246.9 -28.7386 221.788 -28.7386 196.428L164.317 196.428L164.317 389.545Z" fill="#2E384D"/>
<path opacity="0.2" d="M164.317 968.897C138.965 968.897 113.861 963.901 90.438 954.196C67.0154 944.491 45.7331 930.266 27.8061 912.334C9.87925 894.401 -4.34118 873.112 -14.0431 849.682C-23.7451 826.252 -28.7386 801.14 -28.7386 775.779L164.317 775.779L164.317 968.897Z" fill="#303D57"/>
<path opacity="0.6" d="M357.373 392.855C357.373 418.216 352.38 443.328 342.678 466.758C332.976 490.188 318.756 511.477 300.829 529.41C282.902 547.343 261.619 561.567 238.197 571.273C214.774 580.978 189.67 585.973 164.317 585.973L164.317 392.855H357.373Z" fill="#212A3E"/>
<path opacity="0.2" d="M354.064 196.428C354.064 171.067 359.058 145.955 368.76 122.525C378.462 99.0949 392.682 77.8058 410.609 59.8733C428.536 41.9407 449.819 27.7158 473.241 18.0107C496.664 8.30569 521.768 3.31058 547.121 3.31061L547.12 196.428L354.064 196.428Z" fill="#303D57"/>
</g>
</svg>
