<svg width="64" height="93" viewBox="0 0 64 93" fill="none" xmlns="http://www.w3.org/2000/svg">
<g clip-path="url(#clip0_4673_32)">
<path d="M49.9601 18.71C53.7013 18.71 56.7341 15.7198 56.7341 12.0313C56.7341 8.34271 53.7013 5.35254 49.9601 5.35254C46.2189 5.35254 43.186 8.34271 43.186 12.0313C43.186 15.7198 46.2189 18.71 49.9601 18.71Z" fill="#60B158"/>
<path d="M15.444 89.0005C19.1852 89.0005 22.218 86.0104 22.218 82.3218C22.218 78.6332 19.1852 75.6431 15.444 75.6431C11.7028 75.6431 8.66992 78.6332 8.66992 82.3218C8.66992 86.0104 11.7028 89.0005 15.444 89.0005Z" fill="#FF6961"/>
<path d="M30.2795 12.8484C27.7851 10.3032 28.2739 6.5543 28.8315 5C15.7584 11.2964 18.6888 25.1697 22.5738 29.9299C26.4588 34.69 45.4362 53.5317 50.8976 58.8394C55.2668 63.086 55.058 67.9502 54.4086 69.8529C69.9232 59.9457 62.7545 46.5249 59.379 42.8145C56.0057 39.1063 33.4164 16.0498 30.2818 12.8529L30.2795 12.8484Z" fill="#007AFF"/>
<path d="M10.9988 31.8577C8.50446 29.3124 8.99324 25.5636 9.54856 24.0093C-3.52222 30.3057 -0.591847 44.179 3.29084 48.9391C7.17581 53.6993 26.1532 72.5409 31.6147 77.8486C35.9838 82.0952 35.775 86.9595 35.1256 88.8622C50.6403 78.955 43.4715 65.5342 40.096 61.8238C36.7227 58.1156 14.1334 35.0591 10.9988 31.8622V31.8577Z" fill="#FFA700"/>
</g>
<defs>
<clipPath id="clip0_4673_32">
<rect width="64" height="84" fill="white" transform="translate(0 5)"/>
</clipPath>
</defs>
</svg>
